<?xml version="1.0" encoding="utf-8" standalone="no"?>
<!DOCTYPE svg PUBLIC "-//W3C//DTD SVG 1.1//EN"
  "http://www.w3.org/Graphics/SVG/1.1/DTD/svg11.dtd">
<svg xmlns:xlink="http://www.w3.org/1999/xlink" width="712.8pt" height="1072.8pt" viewBox="0 0 712.8 1072.8" xmlns="http://www.w3.org/2000/svg" version="1.1">
 <metadata>
  <rdf:RDF xmlns:dc="http://purl.org/dc/elements/1.1/" xmlns:cc="http://creativecommons.org/ns#" xmlns:rdf="http://www.w3.org/1999/02/22-rdf-syntax-ns#">
   <cc:Work>
    <dc:type rdf:resource="http://purl.org/dc/dcmitype/StillImage"/>
    <dc:date>2024-12-01T19:37:54.093404</dc:date>
    <dc:format>image/svg+xml</dc:format>
    <dc:creator>
     <cc:Agent>
      <dc:title>Matplotlib v3.8.0, https://matplotlib.org/</dc:title>
     </cc:Agent>
    </dc:creator>
   </cc:Work>
  </rdf:RDF>
 </metadata>
 <defs>
  <style type="text/css">*{stroke-linejoin: round; stroke-linecap: butt}</style>
 </defs>
 <g id="figure_1">
  <g id="patch_1">
   <path d="M 0 1072.8 
L 712.8 1072.8 
L 712.8 0 
L 0 0 
z
" style="fill: #ffffff"/>
  </g>
  <g id="axes_1">
   <g id="LineCollection_1">
    <path d="M 705.6 1059.517241 
L 684.962469 1059.517241 
L 684.962469 1055.462069 
L 705.6 1055.462069 
" clip-path="url(#pf310eadc34)" style="fill: none; stroke: #1f77b4; stroke-width: 1.5"/>
    <path d="M 705.6 1063.572414 
L 683.319848 1063.572414 
L 683.319848 1057.489655 
L 684.962469 1057.489655 
" clip-path="url(#pf310eadc34)" style="fill: none; stroke: #1f77b4; stroke-width: 1.5"/>
    <path d="M 705.6 1051.406897 
L 674.681576 1051.406897 
L 674.681576 1047.351724 
L 705.6 1047.351724 
" clip-path="url(#pf310eadc34)" style="fill: none; stroke: #1f77b4; stroke-width: 1.5"/>
    <path d="M 683.319848 1060.531034 
L 659.867233 1060.531034 
L 659.867233 1049.37931 
L 674.681576 1049.37931 
" clip-path="url(#pf310eadc34)" style="fill: none; stroke: #1f77b4; stroke-width: 1.5"/>
    <path d="M 705.6 1043.296552 
L 684.267049 1043.296552 
L 684.267049 1039.241379 
L 705.6 1039.241379 
" clip-path="url(#pf310eadc34)" style="fill: none; stroke: #1f77b4; stroke-width: 1.5"/>
    <path d="M 705.6 1035.186207 
L 679.111162 1035.186207 
L 679.111162 1031.131034 
L 705.6 1031.131034 
" clip-path="url(#pf310eadc34)" style="fill: none; stroke: #1f77b4; stroke-width: 1.5"/>
    <path d="M 684.267049 1041.268966 
L 672.655243 1041.268966 
L 672.655243 1033.158621 
L 679.111162 1033.158621 
" clip-path="url(#pf310eadc34)" style="fill: none; stroke: #1f77b4; stroke-width: 1.5"/>
    <path d="M 705.6 1018.965517 
L 686.232929 1018.965517 
L 686.232929 1014.910345 
L 705.6 1014.910345 
" clip-path="url(#pf310eadc34)" style="fill: none; stroke: #1f77b4; stroke-width: 1.5"/>
    <path d="M 705.6 1023.02069 
L 685.705161 1023.02069 
L 685.705161 1016.937931 
L 686.232929 1016.937931 
" clip-path="url(#pf310eadc34)" style="fill: none; stroke: #1f77b4; stroke-width: 1.5"/>
    <path d="M 705.6 1027.075862 
L 680.814486 1027.075862 
L 680.814486 1019.97931 
L 685.705161 1019.97931 
" clip-path="url(#pf310eadc34)" style="fill: none; stroke: #1f77b4; stroke-width: 1.5"/>
    <path d="M 705.6 1006.8 
L 684.066997 1006.8 
L 684.066997 1002.744828 
L 705.6 1002.744828 
" clip-path="url(#pf310eadc34)" style="fill: none; stroke: #1f77b4; stroke-width: 1.5"/>
    <path d="M 705.6 990.57931 
L 684.874725 990.57931 
L 684.874725 986.524138 
L 705.6 986.524138 
" clip-path="url(#pf310eadc34)" style="fill: none; stroke: #1f77b4; stroke-width: 1.5"/>
    <path d="M 705.6 994.634483 
L 683.490429 994.634483 
L 683.490429 988.551724 
L 684.874725 988.551724 
" clip-path="url(#pf310eadc34)" style="fill: none; stroke: #1f77b4; stroke-width: 1.5"/>
    <path d="M 705.6 998.689655 
L 682.691143 998.689655 
L 682.691143 991.593103 
L 683.490429 991.593103 
" clip-path="url(#pf310eadc34)" style="fill: none; stroke: #1f77b4; stroke-width: 1.5"/>
    <path d="M 684.066997 1004.772414 
L 681.723419 1004.772414 
L 681.723419 995.141379 
L 682.691143 995.141379 
" clip-path="url(#pf310eadc34)" style="fill: none; stroke: #1f77b4; stroke-width: 1.5"/>
    <path d="M 705.6 1010.855172 
L 680.567032 1010.855172 
L 680.567032 999.956897 
L 681.723419 999.956897 
" clip-path="url(#pf310eadc34)" style="fill: none; stroke: #1f77b4; stroke-width: 1.5"/>
    <path d="M 680.814486 1023.527586 
L 668.630164 1023.527586 
L 668.630164 1005.406034 
L 680.567032 1005.406034 
" clip-path="url(#pf310eadc34)" style="fill: none; stroke: #1f77b4; stroke-width: 1.5"/>
    <path d="M 672.655243 1037.213793 
L 653.513222 1037.213793 
L 653.513222 1014.46681 
L 668.630164 1014.46681 
" clip-path="url(#pf310eadc34)" style="fill: none; stroke: #1f77b4; stroke-width: 1.5"/>
    <path d="M 659.867233 1054.955172 
L 621.36151 1054.955172 
L 621.36151 1025.840302 
L 653.513222 1025.840302 
" clip-path="url(#pf310eadc34)" style="fill: none; stroke: #1f77b4; stroke-width: 1.5"/>
    <path d="M 705.6 970.303448 
L 681.494611 970.303448 
L 681.494611 966.248276 
L 705.6 966.248276 
" clip-path="url(#pf310eadc34)" style="fill: none; stroke: #1f77b4; stroke-width: 1.5"/>
    <path d="M 705.6 974.358621 
L 680.591432 974.358621 
L 680.591432 968.275862 
L 681.494611 968.275862 
" clip-path="url(#pf310eadc34)" style="fill: none; stroke: #1f77b4; stroke-width: 1.5"/>
    <path d="M 705.6 978.413793 
L 678.060392 978.413793 
L 678.060392 971.317241 
L 680.591432 971.317241 
" clip-path="url(#pf310eadc34)" style="fill: none; stroke: #1f77b4; stroke-width: 1.5"/>
    <path d="M 705.6 982.468966 
L 662.01532 982.468966 
L 662.01532 974.865517 
L 678.060392 974.865517 
" clip-path="url(#pf310eadc34)" style="fill: none; stroke: #1f77b4; stroke-width: 1.5"/>
    <path d="M 705.6 962.193103 
L 685.146735 962.193103 
L 685.146735 958.137931 
L 705.6 958.137931 
" clip-path="url(#pf310eadc34)" style="fill: none; stroke: #1f77b4; stroke-width: 1.5"/>
    <path d="M 705.6 950.027586 
L 679.503003 950.027586 
L 679.503003 945.972414 
L 705.6 945.972414 
" clip-path="url(#pf310eadc34)" style="fill: none; stroke: #1f77b4; stroke-width: 1.5"/>
    <path d="M 705.6 954.082759 
L 676.393483 954.082759 
L 676.393483 948 
L 679.503003 948 
" clip-path="url(#pf310eadc34)" style="fill: none; stroke: #1f77b4; stroke-width: 1.5"/>
    <path d="M 705.6 937.862069 
L 683.389474 937.862069 
L 683.389474 933.806897 
L 705.6 933.806897 
" clip-path="url(#pf310eadc34)" style="fill: none; stroke: #1f77b4; stroke-width: 1.5"/>
    <path d="M 705.6 941.917241 
L 671.337788 941.917241 
L 671.337788 935.834483 
L 683.389474 935.834483 
" clip-path="url(#pf310eadc34)" style="fill: none; stroke: #1f77b4; stroke-width: 1.5"/>
    <path d="M 676.393483 951.041379 
L 668.422788 951.041379 
L 668.422788 938.875862 
L 671.337788 938.875862 
" clip-path="url(#pf310eadc34)" style="fill: none; stroke: #1f77b4; stroke-width: 1.5"/>
    <path d="M 685.146735 960.165517 
L 661.103697 960.165517 
L 661.103697 944.958621 
L 668.422788 944.958621 
" clip-path="url(#pf310eadc34)" style="fill: none; stroke: #1f77b4; stroke-width: 1.5"/>
    <path d="M 662.01532 978.667241 
L 627.034833 978.667241 
L 627.034833 952.562069 
L 661.103697 952.562069 
" clip-path="url(#pf310eadc34)" style="fill: none; stroke: #1f77b4; stroke-width: 1.5"/>
    <path d="M 705.6 929.751724 
L 686.313424 929.751724 
L 686.313424 925.696552 
L 705.6 925.696552 
" clip-path="url(#pf310eadc34)" style="fill: none; stroke: #1f77b4; stroke-width: 1.5"/>
    <path d="M 705.6 921.641379 
L 683.747947 921.641379 
L 683.747947 917.586207 
L 705.6 917.586207 
" clip-path="url(#pf310eadc34)" style="fill: none; stroke: #1f77b4; stroke-width: 1.5"/>
    <path d="M 686.313424 927.724138 
L 682.807157 927.724138 
L 682.807157 919.613793 
L 683.747947 919.613793 
" clip-path="url(#pf310eadc34)" style="fill: none; stroke: #1f77b4; stroke-width: 1.5"/>
    <path d="M 705.6 913.531034 
L 682.575612 913.531034 
L 682.575612 909.475862 
L 705.6 909.475862 
" clip-path="url(#pf310eadc34)" style="fill: none; stroke: #1f77b4; stroke-width: 1.5"/>
    <path d="M 682.807157 923.668966 
L 679.276806 923.668966 
L 679.276806 911.503448 
L 682.575612 911.503448 
" clip-path="url(#pf310eadc34)" style="fill: none; stroke: #1f77b4; stroke-width: 1.5"/>
    <path d="M 705.6 905.42069 
L 684.84926 905.42069 
L 684.84926 901.365517 
L 705.6 901.365517 
" clip-path="url(#pf310eadc34)" style="fill: none; stroke: #1f77b4; stroke-width: 1.5"/>
    <path d="M 705.6 897.310345 
L 681.773089 897.310345 
L 681.773089 893.255172 
L 705.6 893.255172 
" clip-path="url(#pf310eadc34)" style="fill: none; stroke: #1f77b4; stroke-width: 1.5"/>
    <path d="M 684.84926 903.393103 
L 664.660855 903.393103 
L 664.660855 895.282759 
L 681.773089 895.282759 
" clip-path="url(#pf310eadc34)" style="fill: none; stroke: #1f77b4; stroke-width: 1.5"/>
    <path d="M 705.6 881.089655 
L 679.382714 881.089655 
L 679.382714 877.034483 
L 705.6 877.034483 
" clip-path="url(#pf310eadc34)" style="fill: none; stroke: #1f77b4; stroke-width: 1.5"/>
    <path d="M 705.6 885.144828 
L 676.541785 885.144828 
L 676.541785 879.062069 
L 679.382714 879.062069 
" clip-path="url(#pf310eadc34)" style="fill: none; stroke: #1f77b4; stroke-width: 1.5"/>
    <path d="M 705.6 889.2 
L 663.436754 889.2 
L 663.436754 882.103448 
L 676.541785 882.103448 
" clip-path="url(#pf310eadc34)" style="fill: none; stroke: #1f77b4; stroke-width: 1.5"/>
    <path d="M 664.660855 899.337931 
L 649.033706 899.337931 
L 649.033706 885.651724 
L 663.436754 885.651724 
" clip-path="url(#pf310eadc34)" style="fill: none; stroke: #1f77b4; stroke-width: 1.5"/>
    <path d="M 679.276806 917.586207 
L 618.069409 917.586207 
L 618.069409 892.494828 
L 649.033706 892.494828 
" clip-path="url(#pf310eadc34)" style="fill: none; stroke: #1f77b4; stroke-width: 1.5"/>
    <path d="M 627.034833 965.614655 
L 578.888559 965.614655 
L 578.888559 905.040517 
L 618.069409 905.040517 
" clip-path="url(#pf310eadc34)" style="fill: none; stroke: #1f77b4; stroke-width: 1.5"/>
    <path d="M 621.36151 1040.397737 
L 573.409778 1040.397737 
L 573.409778 935.327586 
L 578.888559 935.327586 
" clip-path="url(#pf310eadc34)" style="fill: none; stroke: #1f77b4; stroke-width: 1.5"/>
    <path d="M 705.6 864.868966 
L 685.638237 864.868966 
L 685.638237 860.813793 
L 705.6 860.813793 
" clip-path="url(#pf310eadc34)" style="fill: none; stroke: #1f77b4; stroke-width: 1.5"/>
    <path d="M 705.6 868.924138 
L 685.177702 868.924138 
L 685.177702 862.841379 
L 685.638237 862.841379 
" clip-path="url(#pf310eadc34)" style="fill: none; stroke: #1f77b4; stroke-width: 1.5"/>
    <path d="M 705.6 848.648276 
L 686.627435 848.648276 
L 686.627435 844.593103 
L 705.6 844.593103 
" clip-path="url(#pf310eadc34)" style="fill: none; stroke: #1f77b4; stroke-width: 1.5"/>
    <path d="M 705.6 852.703448 
L 685.934248 852.703448 
L 685.934248 846.62069 
L 686.627435 846.62069 
" clip-path="url(#pf310eadc34)" style="fill: none; stroke: #1f77b4; stroke-width: 1.5"/>
    <path d="M 705.6 856.758621 
L 685.590894 856.758621 
L 685.590894 849.662069 
L 685.934248 849.662069 
" clip-path="url(#pf310eadc34)" style="fill: none; stroke: #1f77b4; stroke-width: 1.5"/>
    <path d="M 705.6 836.482759 
L 686.149822 836.482759 
L 686.149822 832.427586 
L 705.6 832.427586 
" clip-path="url(#pf310eadc34)" style="fill: none; stroke: #1f77b4; stroke-width: 1.5"/>
    <path d="M 705.6 840.537931 
L 685.326416 840.537931 
L 685.326416 834.455172 
L 686.149822 834.455172 
" clip-path="url(#pf310eadc34)" style="fill: none; stroke: #1f77b4; stroke-width: 1.5"/>
    <path d="M 685.590894 853.210345 
L 685.023911 853.210345 
L 685.023911 837.496552 
L 685.326416 837.496552 
" clip-path="url(#pf310eadc34)" style="fill: none; stroke: #1f77b4; stroke-width: 1.5"/>
    <path d="M 685.177702 865.882759 
L 684.539086 865.882759 
L 684.539086 845.353448 
L 685.023911 845.353448 
" clip-path="url(#pf310eadc34)" style="fill: none; stroke: #1f77b4; stroke-width: 1.5"/>
    <path d="M 705.6 872.97931 
L 666.149552 872.97931 
L 666.149552 855.618103 
L 684.539086 855.618103 
" clip-path="url(#pf310eadc34)" style="fill: none; stroke: #1f77b4; stroke-width: 1.5"/>
    <path d="M 705.6 828.372414 
L 684.022189 828.372414 
L 684.022189 824.317241 
L 705.6 824.317241 
" clip-path="url(#pf310eadc34)" style="fill: none; stroke: #1f77b4; stroke-width: 1.5"/>
    <path d="M 705.6 820.262069 
L 683.4884 820.262069 
L 683.4884 816.206897 
L 705.6 816.206897 
" clip-path="url(#pf310eadc34)" style="fill: none; stroke: #1f77b4; stroke-width: 1.5"/>
    <path d="M 684.022189 826.344828 
L 680.484835 826.344828 
L 680.484835 818.234483 
L 683.4884 818.234483 
" clip-path="url(#pf310eadc34)" style="fill: none; stroke: #1f77b4; stroke-width: 1.5"/>
    <path d="M 705.6 812.151724 
L 685.170286 812.151724 
L 685.170286 808.096552 
L 705.6 808.096552 
" clip-path="url(#pf310eadc34)" style="fill: none; stroke: #1f77b4; stroke-width: 1.5"/>
    <path d="M 705.6 795.931034 
L 684.703579 795.931034 
L 684.703579 791.875862 
L 705.6 791.875862 
" clip-path="url(#pf310eadc34)" style="fill: none; stroke: #1f77b4; stroke-width: 1.5"/>
    <path d="M 705.6 799.986207 
L 684.494225 799.986207 
L 684.494225 793.903448 
L 684.703579 793.903448 
" clip-path="url(#pf310eadc34)" style="fill: none; stroke: #1f77b4; stroke-width: 1.5"/>
    <path d="M 705.6 804.041379 
L 684.07457 804.041379 
L 684.07457 796.944828 
L 684.494225 796.944828 
" clip-path="url(#pf310eadc34)" style="fill: none; stroke: #1f77b4; stroke-width: 1.5"/>
    <path d="M 685.170286 810.124138 
L 674.463342 810.124138 
L 674.463342 800.493103 
L 684.07457 800.493103 
" clip-path="url(#pf310eadc34)" style="fill: none; stroke: #1f77b4; stroke-width: 1.5"/>
    <path d="M 680.484835 822.289655 
L 659.78917 822.289655 
L 659.78917 805.308621 
L 674.463342 805.308621 
" clip-path="url(#pf310eadc34)" style="fill: none; stroke: #1f77b4; stroke-width: 1.5"/>
    <path d="M 705.6 775.655172 
L 683.272452 775.655172 
L 683.272452 771.6 
L 705.6 771.6 
" clip-path="url(#pf310eadc34)" style="fill: none; stroke: #1f77b4; stroke-width: 1.5"/>
    <path d="M 705.6 767.544828 
L 679.275246 767.544828 
L 679.275246 763.489655 
L 705.6 763.489655 
" clip-path="url(#pf310eadc34)" style="fill: none; stroke: #1f77b4; stroke-width: 1.5"/>
    <path d="M 683.272452 773.627586 
L 676.313976 773.627586 
L 676.313976 765.517241 
L 679.275246 765.517241 
" clip-path="url(#pf310eadc34)" style="fill: none; stroke: #1f77b4; stroke-width: 1.5"/>
    <path d="M 705.6 779.710345 
L 673.741756 779.710345 
L 673.741756 769.572414 
L 676.313976 769.572414 
" clip-path="url(#pf310eadc34)" style="fill: none; stroke: #1f77b4; stroke-width: 1.5"/>
    <path d="M 705.6 783.765517 
L 668.406186 783.765517 
L 668.406186 774.641379 
L 673.741756 774.641379 
" clip-path="url(#pf310eadc34)" style="fill: none; stroke: #1f77b4; stroke-width: 1.5"/>
    <path d="M 705.6 787.82069 
L 648.582772 787.82069 
L 648.582772 779.203448 
L 668.406186 779.203448 
" clip-path="url(#pf310eadc34)" style="fill: none; stroke: #1f77b4; stroke-width: 1.5"/>
    <path d="M 659.78917 813.799138 
L 632.69342 813.799138 
L 632.69342 783.512069 
L 648.582772 783.512069 
" clip-path="url(#pf310eadc34)" style="fill: none; stroke: #1f77b4; stroke-width: 1.5"/>
    <path d="M 705.6 759.434483 
L 685.238372 759.434483 
L 685.238372 755.37931 
L 705.6 755.37931 
" clip-path="url(#pf310eadc34)" style="fill: none; stroke: #1f77b4; stroke-width: 1.5"/>
    <path d="M 705.6 747.268966 
L 683.08631 747.268966 
L 683.08631 743.213793 
L 705.6 743.213793 
" clip-path="url(#pf310eadc34)" style="fill: none; stroke: #1f77b4; stroke-width: 1.5"/>
    <path d="M 705.6 751.324138 
L 682.520691 751.324138 
L 682.520691 745.241379 
L 683.08631 745.241379 
" clip-path="url(#pf310eadc34)" style="fill: none; stroke: #1f77b4; stroke-width: 1.5"/>
    <path d="M 685.238372 757.406897 
L 681.808546 757.406897 
L 681.808546 748.282759 
L 682.520691 748.282759 
" clip-path="url(#pf310eadc34)" style="fill: none; stroke: #1f77b4; stroke-width: 1.5"/>
    <path d="M 705.6 735.103448 
L 678.927218 735.103448 
L 678.927218 731.048276 
L 705.6 731.048276 
" clip-path="url(#pf310eadc34)" style="fill: none; stroke: #1f77b4; stroke-width: 1.5"/>
    <path d="M 705.6 739.158621 
L 673.976982 739.158621 
L 673.976982 733.075862 
L 678.927218 733.075862 
" clip-path="url(#pf310eadc34)" style="fill: none; stroke: #1f77b4; stroke-width: 1.5"/>
    <path d="M 681.808546 752.844828 
L 672.982613 752.844828 
L 672.982613 736.117241 
L 673.976982 736.117241 
" clip-path="url(#pf310eadc34)" style="fill: none; stroke: #1f77b4; stroke-width: 1.5"/>
    <path d="M 705.6 726.993103 
L 677.105844 726.993103 
L 677.105844 722.937931 
L 705.6 722.937931 
" clip-path="url(#pf310eadc34)" style="fill: none; stroke: #1f77b4; stroke-width: 1.5"/>
    <path d="M 705.6 718.882759 
L 675.567142 718.882759 
L 675.567142 714.827586 
L 705.6 714.827586 
" clip-path="url(#pf310eadc34)" style="fill: none; stroke: #1f77b4; stroke-width: 1.5"/>
    <path d="M 677.105844 724.965517 
L 669.513399 724.965517 
L 669.513399 716.855172 
L 675.567142 716.855172 
" clip-path="url(#pf310eadc34)" style="fill: none; stroke: #1f77b4; stroke-width: 1.5"/>
    <path d="M 705.6 710.772414 
L 685.689134 710.772414 
L 685.689134 706.717241 
L 705.6 706.717241 
" clip-path="url(#pf310eadc34)" style="fill: none; stroke: #1f77b4; stroke-width: 1.5"/>
    <path d="M 705.6 702.662069 
L 674.892456 702.662069 
L 674.892456 698.606897 
L 705.6 698.606897 
" clip-path="url(#pf310eadc34)" style="fill: none; stroke: #1f77b4; stroke-width: 1.5"/>
    <path d="M 685.689134 708.744828 
L 671.599792 708.744828 
L 671.599792 700.634483 
L 674.892456 700.634483 
" clip-path="url(#pf310eadc34)" style="fill: none; stroke: #1f77b4; stroke-width: 1.5"/>
    <path d="M 705.6 694.551724 
L 667.884228 694.551724 
L 667.884228 690.496552 
L 705.6 690.496552 
" clip-path="url(#pf310eadc34)" style="fill: none; stroke: #1f77b4; stroke-width: 1.5"/>
    <path d="M 705.6 686.441379 
L 672.896142 686.441379 
L 672.896142 682.386207 
L 705.6 682.386207 
" clip-path="url(#pf310eadc34)" style="fill: none; stroke: #1f77b4; stroke-width: 1.5"/>
    <path d="M 705.6 678.331034 
L 670.651544 678.331034 
L 670.651544 674.275862 
L 705.6 674.275862 
" clip-path="url(#pf310eadc34)" style="fill: none; stroke: #1f77b4; stroke-width: 1.5"/>
    <path d="M 672.896142 684.413793 
L 667.260837 684.413793 
L 667.260837 676.303448 
L 670.651544 676.303448 
" clip-path="url(#pf310eadc34)" style="fill: none; stroke: #1f77b4; stroke-width: 1.5"/>
    <path d="M 667.884228 692.524138 
L 662.203731 692.524138 
L 662.203731 680.358621 
L 667.260837 680.358621 
" clip-path="url(#pf310eadc34)" style="fill: none; stroke: #1f77b4; stroke-width: 1.5"/>
    <path d="M 671.599792 704.689655 
L 648.166162 704.689655 
L 648.166162 686.441379 
L 662.203731 686.441379 
" clip-path="url(#pf310eadc34)" style="fill: none; stroke: #1f77b4; stroke-width: 1.5"/>
    <path d="M 669.513399 720.910345 
L 643.579024 720.910345 
L 643.579024 695.565517 
L 648.166162 695.565517 
" clip-path="url(#pf310eadc34)" style="fill: none; stroke: #1f77b4; stroke-width: 1.5"/>
    <path d="M 672.982613 744.481034 
L 612.469305 744.481034 
L 612.469305 708.237931 
L 643.579024 708.237931 
" clip-path="url(#pf310eadc34)" style="fill: none; stroke: #1f77b4; stroke-width: 1.5"/>
    <path d="M 632.69342 798.655603 
L 556.194923 798.655603 
L 556.194923 726.359483 
L 612.469305 726.359483 
" clip-path="url(#pf310eadc34)" style="fill: none; stroke: #1f77b4; stroke-width: 1.5"/>
    <path d="M 666.149552 864.298707 
L 503.406273 864.298707 
L 503.406273 762.507543 
L 556.194923 762.507543 
" clip-path="url(#pf310eadc34)" style="fill: none; stroke: #1f77b4; stroke-width: 1.5"/>
    <path d="M 573.409778 987.862662 
L 437.682627 987.862662 
L 437.682627 813.403125 
L 503.406273 813.403125 
" clip-path="url(#pf310eadc34)" style="fill: none; stroke: #1f77b4; stroke-width: 1.5"/>
    <path d="M 705.6 666.165517 
L 686.816165 666.165517 
L 686.816165 662.110345 
L 705.6 662.110345 
" clip-path="url(#pf310eadc34)" style="fill: none; stroke: #1f77b4; stroke-width: 1.5"/>
    <path d="M 705.6 654 
L 686.71513 654 
L 686.71513 649.944828 
L 705.6 649.944828 
" clip-path="url(#pf310eadc34)" style="fill: none; stroke: #1f77b4; stroke-width: 1.5"/>
    <path d="M 705.6 658.055172 
L 686.109263 658.055172 
L 686.109263 651.972414 
L 686.71513 651.972414 
" clip-path="url(#pf310eadc34)" style="fill: none; stroke: #1f77b4; stroke-width: 1.5"/>
    <path d="M 705.6 633.724138 
L 687.143926 633.724138 
L 687.143926 629.668966 
L 705.6 629.668966 
" clip-path="url(#pf310eadc34)" style="fill: none; stroke: #1f77b4; stroke-width: 1.5"/>
    <path d="M 705.6 637.77931 
L 686.376802 637.77931 
L 686.376802 631.696552 
L 687.143926 631.696552 
" clip-path="url(#pf310eadc34)" style="fill: none; stroke: #1f77b4; stroke-width: 1.5"/>
    <path d="M 705.6 641.834483 
L 686.000413 641.834483 
L 686.000413 634.737931 
L 686.376802 634.737931 
" clip-path="url(#pf310eadc34)" style="fill: none; stroke: #1f77b4; stroke-width: 1.5"/>
    <path d="M 705.6 645.889655 
L 685.635996 645.889655 
L 685.635996 638.286207 
L 686.000413 638.286207 
" clip-path="url(#pf310eadc34)" style="fill: none; stroke: #1f77b4; stroke-width: 1.5"/>
    <path d="M 686.109263 655.013793 
L 685.288667 655.013793 
L 685.288667 642.087931 
L 685.635996 642.087931 
" clip-path="url(#pf310eadc34)" style="fill: none; stroke: #1f77b4; stroke-width: 1.5"/>
    <path d="M 686.816165 664.137931 
L 683.189462 664.137931 
L 683.189462 648.550862 
L 685.288667 648.550862 
" clip-path="url(#pf310eadc34)" style="fill: none; stroke: #1f77b4; stroke-width: 1.5"/>
    <path d="M 705.6 621.558621 
L 685.95942 621.558621 
L 685.95942 617.503448 
L 705.6 617.503448 
" clip-path="url(#pf310eadc34)" style="fill: none; stroke: #1f77b4; stroke-width: 1.5"/>
    <path d="M 705.6 625.613793 
L 684.621057 625.613793 
L 684.621057 619.531034 
L 685.95942 619.531034 
" clip-path="url(#pf310eadc34)" style="fill: none; stroke: #1f77b4; stroke-width: 1.5"/>
    <path d="M 705.6 613.448276 
L 685.696501 613.448276 
L 685.696501 609.393103 
L 705.6 609.393103 
" clip-path="url(#pf310eadc34)" style="fill: none; stroke: #1f77b4; stroke-width: 1.5"/>
    <path d="M 705.6 605.337931 
L 685.3954 605.337931 
L 685.3954 601.282759 
L 705.6 601.282759 
" clip-path="url(#pf310eadc34)" style="fill: none; stroke: #1f77b4; stroke-width: 1.5"/>
    <path d="M 685.696501 611.42069 
L 684.429976 611.42069 
L 684.429976 603.310345 
L 685.3954 603.310345 
" clip-path="url(#pf310eadc34)" style="fill: none; stroke: #1f77b4; stroke-width: 1.5"/>
    <path d="M 684.621057 622.572414 
L 682.429909 622.572414 
L 682.429909 607.365517 
L 684.429976 607.365517 
" clip-path="url(#pf310eadc34)" style="fill: none; stroke: #1f77b4; stroke-width: 1.5"/>
    <path d="M 683.189462 656.344397 
L 678.857 656.344397 
L 678.857 614.968966 
L 682.429909 614.968966 
" clip-path="url(#pf310eadc34)" style="fill: none; stroke: #1f77b4; stroke-width: 1.5"/>
    <path d="M 705.6 670.22069 
L 674.81846 670.22069 
L 674.81846 635.656681 
L 678.857 635.656681 
" clip-path="url(#pf310eadc34)" style="fill: none; stroke: #1f77b4; stroke-width: 1.5"/>
    <path d="M 705.6 593.172414 
L 686.326354 593.172414 
L 686.326354 589.117241 
L 705.6 589.117241 
" clip-path="url(#pf310eadc34)" style="fill: none; stroke: #1f77b4; stroke-width: 1.5"/>
    <path d="M 705.6 597.227586 
L 685.378811 597.227586 
L 685.378811 591.144828 
L 686.326354 591.144828 
" clip-path="url(#pf310eadc34)" style="fill: none; stroke: #1f77b4; stroke-width: 1.5"/>
    <path d="M 705.6 585.062069 
L 686.536039 585.062069 
L 686.536039 581.006897 
L 705.6 581.006897 
" clip-path="url(#pf310eadc34)" style="fill: none; stroke: #1f77b4; stroke-width: 1.5"/>
    <path d="M 705.6 568.841379 
L 687.182682 568.841379 
L 687.182682 564.786207 
L 705.6 564.786207 
" clip-path="url(#pf310eadc34)" style="fill: none; stroke: #1f77b4; stroke-width: 1.5"/>
    <path d="M 705.6 572.896552 
L 686.657954 572.896552 
L 686.657954 566.813793 
L 687.182682 566.813793 
" clip-path="url(#pf310eadc34)" style="fill: none; stroke: #1f77b4; stroke-width: 1.5"/>
    <path d="M 705.6 576.951724 
L 686.45159 576.951724 
L 686.45159 569.855172 
L 686.657954 569.855172 
" clip-path="url(#pf310eadc34)" style="fill: none; stroke: #1f77b4; stroke-width: 1.5"/>
    <path d="M 705.6 552.62069 
L 687.21504 552.62069 
L 687.21504 548.565517 
L 705.6 548.565517 
" clip-path="url(#pf310eadc34)" style="fill: none; stroke: #1f77b4; stroke-width: 1.5"/>
    <path d="M 705.6 556.675862 
L 686.920026 556.675862 
L 686.920026 550.593103 
L 687.21504 550.593103 
" clip-path="url(#pf310eadc34)" style="fill: none; stroke: #1f77b4; stroke-width: 1.5"/>
    <path d="M 705.6 560.731034 
L 685.786014 560.731034 
L 685.786014 553.634483 
L 686.920026 553.634483 
" clip-path="url(#pf310eadc34)" style="fill: none; stroke: #1f77b4; stroke-width: 1.5"/>
    <path d="M 686.45159 573.403448 
L 685.257488 573.403448 
L 685.257488 557.182759 
L 685.786014 557.182759 
" clip-path="url(#pf310eadc34)" style="fill: none; stroke: #1f77b4; stroke-width: 1.5"/>
    <path d="M 686.536039 583.034483 
L 684.355065 583.034483 
L 684.355065 565.293103 
L 685.257488 565.293103 
" clip-path="url(#pf310eadc34)" style="fill: none; stroke: #1f77b4; stroke-width: 1.5"/>
    <path d="M 685.378811 594.186207 
L 683.439434 594.186207 
L 683.439434 574.163793 
L 684.355065 574.163793 
" clip-path="url(#pf310eadc34)" style="fill: none; stroke: #1f77b4; stroke-width: 1.5"/>
    <path d="M 705.6 532.344828 
L 687.278788 532.344828 
L 687.278788 528.289655 
L 705.6 528.289655 
" clip-path="url(#pf310eadc34)" style="fill: none; stroke: #1f77b4; stroke-width: 1.5"/>
    <path d="M 705.6 524.234483 
L 686.779739 524.234483 
L 686.779739 520.17931 
L 705.6 520.17931 
" clip-path="url(#pf310eadc34)" style="fill: none; stroke: #1f77b4; stroke-width: 1.5"/>
    <path d="M 687.278788 530.317241 
L 686.243477 530.317241 
L 686.243477 522.206897 
L 686.779739 522.206897 
" clip-path="url(#pf310eadc34)" style="fill: none; stroke: #1f77b4; stroke-width: 1.5"/>
    <path d="M 705.6 536.4 
L 686.141852 536.4 
L 686.141852 526.262069 
L 686.243477 526.262069 
" clip-path="url(#pf310eadc34)" style="fill: none; stroke: #1f77b4; stroke-width: 1.5"/>
    <path d="M 705.6 540.455172 
L 684.152818 540.455172 
L 684.152818 531.331034 
L 686.141852 531.331034 
" clip-path="url(#pf310eadc34)" style="fill: none; stroke: #1f77b4; stroke-width: 1.5"/>
    <path d="M 705.6 544.510345 
L 682.915208 544.510345 
L 682.915208 535.893103 
L 684.152818 535.893103 
" clip-path="url(#pf310eadc34)" style="fill: none; stroke: #1f77b4; stroke-width: 1.5"/>
    <path d="M 705.6 516.124138 
L 686.496234 516.124138 
L 686.496234 512.068966 
L 705.6 512.068966 
" clip-path="url(#pf310eadc34)" style="fill: none; stroke: #1f77b4; stroke-width: 1.5"/>
    <path d="M 705.6 503.958621 
L 686.818965 503.958621 
L 686.818965 499.903448 
L 705.6 499.903448 
" clip-path="url(#pf310eadc34)" style="fill: none; stroke: #1f77b4; stroke-width: 1.5"/>
    <path d="M 705.6 508.013793 
L 685.846847 508.013793 
L 685.846847 501.931034 
L 686.818965 501.931034 
" clip-path="url(#pf310eadc34)" style="fill: none; stroke: #1f77b4; stroke-width: 1.5"/>
    <path d="M 686.496234 514.096552 
L 685.439935 514.096552 
L 685.439935 504.972414 
L 685.846847 504.972414 
" clip-path="url(#pf310eadc34)" style="fill: none; stroke: #1f77b4; stroke-width: 1.5"/>
    <path d="M 705.6 495.848276 
L 684.709455 495.848276 
L 684.709455 491.793103 
L 705.6 491.793103 
" clip-path="url(#pf310eadc34)" style="fill: none; stroke: #1f77b4; stroke-width: 1.5"/>
    <path d="M 685.439935 509.534483 
L 683.694221 509.534483 
L 683.694221 493.82069 
L 684.709455 493.82069 
" clip-path="url(#pf310eadc34)" style="fill: none; stroke: #1f77b4; stroke-width: 1.5"/>
    <path d="M 705.6 483.682759 
L 686.179795 483.682759 
L 686.179795 479.627586 
L 705.6 479.627586 
" clip-path="url(#pf310eadc34)" style="fill: none; stroke: #1f77b4; stroke-width: 1.5"/>
    <path d="M 705.6 487.737931 
L 685.765998 487.737931 
L 685.765998 481.655172 
L 686.179795 481.655172 
" clip-path="url(#pf310eadc34)" style="fill: none; stroke: #1f77b4; stroke-width: 1.5"/>
    <path d="M 705.6 467.462069 
L 686.809735 467.462069 
L 686.809735 463.406897 
L 705.6 463.406897 
" clip-path="url(#pf310eadc34)" style="fill: none; stroke: #1f77b4; stroke-width: 1.5"/>
    <path d="M 705.6 471.517241 
L 686.60381 471.517241 
L 686.60381 465.434483 
L 686.809735 465.434483 
" clip-path="url(#pf310eadc34)" style="fill: none; stroke: #1f77b4; stroke-width: 1.5"/>
    <path d="M 705.6 475.572414 
L 685.165511 475.572414 
L 685.165511 468.475862 
L 686.60381 468.475862 
" clip-path="url(#pf310eadc34)" style="fill: none; stroke: #1f77b4; stroke-width: 1.5"/>
    <path d="M 685.765998 484.696552 
L 683.085313 484.696552 
L 683.085313 472.024138 
L 685.165511 472.024138 
" clip-path="url(#pf310eadc34)" style="fill: none; stroke: #1f77b4; stroke-width: 1.5"/>
    <path d="M 683.694221 501.677586 
L 680.110533 501.677586 
L 680.110533 478.360345 
L 683.085313 478.360345 
" clip-path="url(#pf310eadc34)" style="fill: none; stroke: #1f77b4; stroke-width: 1.5"/>
    <path d="M 682.915208 540.201724 
L 678.828602 540.201724 
L 678.828602 490.018966 
L 680.110533 490.018966 
" clip-path="url(#pf310eadc34)" style="fill: none; stroke: #1f77b4; stroke-width: 1.5"/>
    <path d="M 683.439434 584.175 
L 671.061425 584.175 
L 671.061425 515.110345 
L 678.828602 515.110345 
" clip-path="url(#pf310eadc34)" style="fill: none; stroke: #1f77b4; stroke-width: 1.5"/>
    <path d="M 674.81846 652.938685 
L 664.237696 652.938685 
L 664.237696 549.642672 
L 671.061425 549.642672 
" clip-path="url(#pf310eadc34)" style="fill: none; stroke: #1f77b4; stroke-width: 1.5"/>
    <path d="M 705.6 447.186207 
L 686.45173 447.186207 
L 686.45173 443.131034 
L 705.6 443.131034 
" clip-path="url(#pf310eadc34)" style="fill: none; stroke: #1f77b4; stroke-width: 1.5"/>
    <path d="M 705.6 451.241379 
L 686.061813 451.241379 
L 686.061813 445.158621 
L 686.45173 445.158621 
" clip-path="url(#pf310eadc34)" style="fill: none; stroke: #1f77b4; stroke-width: 1.5"/>
    <path d="M 705.6 455.296552 
L 685.457799 455.296552 
L 685.457799 448.2 
L 686.061813 448.2 
" clip-path="url(#pf310eadc34)" style="fill: none; stroke: #1f77b4; stroke-width: 1.5"/>
    <path d="M 705.6 459.351724 
L 684.143904 459.351724 
L 684.143904 451.748276 
L 685.457799 451.748276 
" clip-path="url(#pf310eadc34)" style="fill: none; stroke: #1f77b4; stroke-width: 1.5"/>
    <path d="M 705.6 435.02069 
L 685.35255 435.02069 
L 685.35255 430.965517 
L 705.6 430.965517 
" clip-path="url(#pf310eadc34)" style="fill: none; stroke: #1f77b4; stroke-width: 1.5"/>
    <path d="M 705.6 439.075862 
L 679.627736 439.075862 
L 679.627736 432.993103 
L 685.35255 432.993103 
" clip-path="url(#pf310eadc34)" style="fill: none; stroke: #1f77b4; stroke-width: 1.5"/>
    <path d="M 705.6 418.8 
L 686.946884 418.8 
L 686.946884 414.744828 
L 705.6 414.744828 
" clip-path="url(#pf310eadc34)" style="fill: none; stroke: #1f77b4; stroke-width: 1.5"/>
    <path d="M 705.6 422.855172 
L 684.728451 422.855172 
L 684.728451 416.772414 
L 686.946884 416.772414 
" clip-path="url(#pf310eadc34)" style="fill: none; stroke: #1f77b4; stroke-width: 1.5"/>
    <path d="M 705.6 426.910345 
L 684.637344 426.910345 
L 684.637344 419.813793 
L 684.728451 419.813793 
" clip-path="url(#pf310eadc34)" style="fill: none; stroke: #1f77b4; stroke-width: 1.5"/>
    <path d="M 705.6 406.634483 
L 685.54663 406.634483 
L 685.54663 402.57931 
L 705.6 402.57931 
" clip-path="url(#pf310eadc34)" style="fill: none; stroke: #1f77b4; stroke-width: 1.5"/>
    <path d="M 705.6 410.689655 
L 683.600738 410.689655 
L 683.600738 404.606897 
L 685.54663 404.606897 
" clip-path="url(#pf310eadc34)" style="fill: none; stroke: #1f77b4; stroke-width: 1.5"/>
    <path d="M 684.637344 423.362069 
L 678.851175 423.362069 
L 678.851175 407.648276 
L 683.600738 407.648276 
" clip-path="url(#pf310eadc34)" style="fill: none; stroke: #1f77b4; stroke-width: 1.5"/>
    <path d="M 679.627736 436.034483 
L 675.75337 436.034483 
L 675.75337 415.505172 
L 678.851175 415.505172 
" clip-path="url(#pf310eadc34)" style="fill: none; stroke: #1f77b4; stroke-width: 1.5"/>
    <path d="M 684.143904 455.55 
L 659.507951 455.55 
L 659.507951 425.769828 
L 675.75337 425.769828 
" clip-path="url(#pf310eadc34)" style="fill: none; stroke: #1f77b4; stroke-width: 1.5"/>
    <path d="M 664.237696 601.290679 
L 650.691013 601.290679 
L 650.691013 440.659914 
L 659.507951 440.659914 
" clip-path="url(#pf310eadc34)" style="fill: none; stroke: #1f77b4; stroke-width: 1.5"/>
    <path d="M 705.6 398.524138 
L 680.104785 398.524138 
L 680.104785 394.468966 
L 705.6 394.468966 
" clip-path="url(#pf310eadc34)" style="fill: none; stroke: #1f77b4; stroke-width: 1.5"/>
    <path d="M 705.6 390.413793 
L 677.022108 390.413793 
L 677.022108 386.358621 
L 705.6 386.358621 
" clip-path="url(#pf310eadc34)" style="fill: none; stroke: #1f77b4; stroke-width: 1.5"/>
    <path d="M 680.104785 396.496552 
L 670.706283 396.496552 
L 670.706283 388.386207 
L 677.022108 388.386207 
" clip-path="url(#pf310eadc34)" style="fill: none; stroke: #1f77b4; stroke-width: 1.5"/>
    <path d="M 705.6 374.193103 
L 687.395634 374.193103 
L 687.395634 370.137931 
L 705.6 370.137931 
" clip-path="url(#pf310eadc34)" style="fill: none; stroke: #1f77b4; stroke-width: 1.5"/>
    <path d="M 705.6 378.248276 
L 687.068764 378.248276 
L 687.068764 372.165517 
L 687.395634 372.165517 
" clip-path="url(#pf310eadc34)" style="fill: none; stroke: #1f77b4; stroke-width: 1.5"/>
    <path d="M 705.6 362.027586 
L 687.275686 362.027586 
L 687.275686 357.972414 
L 705.6 357.972414 
" clip-path="url(#pf310eadc34)" style="fill: none; stroke: #1f77b4; stroke-width: 1.5"/>
    <path d="M 705.6 366.082759 
L 686.790129 366.082759 
L 686.790129 360 
L 687.275686 360 
" clip-path="url(#pf310eadc34)" style="fill: none; stroke: #1f77b4; stroke-width: 1.5"/>
    <path d="M 687.068764 375.206897 
L 686.194743 375.206897 
L 686.194743 363.041379 
L 686.790129 363.041379 
" clip-path="url(#pf310eadc34)" style="fill: none; stroke: #1f77b4; stroke-width: 1.5"/>
    <path d="M 705.6 382.303448 
L 683.926164 382.303448 
L 683.926164 369.124138 
L 686.194743 369.124138 
" clip-path="url(#pf310eadc34)" style="fill: none; stroke: #1f77b4; stroke-width: 1.5"/>
    <path d="M 705.6 353.917241 
L 676.667348 353.917241 
L 676.667348 349.862069 
L 705.6 349.862069 
" clip-path="url(#pf310eadc34)" style="fill: none; stroke: #1f77b4; stroke-width: 1.5"/>
    <path d="M 683.926164 375.713793 
L 669.891895 375.713793 
L 669.891895 351.889655 
L 676.667348 351.889655 
" clip-path="url(#pf310eadc34)" style="fill: none; stroke: #1f77b4; stroke-width: 1.5"/>
    <path d="M 670.706283 392.441379 
L 634.932341 392.441379 
L 634.932341 363.801724 
L 669.891895 363.801724 
" clip-path="url(#pf310eadc34)" style="fill: none; stroke: #1f77b4; stroke-width: 1.5"/>
    <path d="M 650.691013 520.975296 
L 558.088554 520.975296 
L 558.088554 378.121552 
L 634.932341 378.121552 
" clip-path="url(#pf310eadc34)" style="fill: none; stroke: #1f77b4; stroke-width: 1.5"/>
    <path d="M 705.6 341.751724 
L 684.656921 341.751724 
L 684.656921 337.696552 
L 705.6 337.696552 
" clip-path="url(#pf310eadc34)" style="fill: none; stroke: #1f77b4; stroke-width: 1.5"/>
    <path d="M 705.6 345.806897 
L 680.811874 345.806897 
L 680.811874 339.724138 
L 684.656921 339.724138 
" clip-path="url(#pf310eadc34)" style="fill: none; stroke: #1f77b4; stroke-width: 1.5"/>
    <path d="M 705.6 329.586207 
L 686.461303 329.586207 
L 686.461303 325.531034 
L 705.6 325.531034 
" clip-path="url(#pf310eadc34)" style="fill: none; stroke: #1f77b4; stroke-width: 1.5"/>
    <path d="M 705.6 333.641379 
L 685.667628 333.641379 
L 685.667628 327.558621 
L 686.461303 327.558621 
" clip-path="url(#pf310eadc34)" style="fill: none; stroke: #1f77b4; stroke-width: 1.5"/>
    <path d="M 705.6 321.475862 
L 682.381065 321.475862 
L 682.381065 317.42069 
L 705.6 317.42069 
" clip-path="url(#pf310eadc34)" style="fill: none; stroke: #1f77b4; stroke-width: 1.5"/>
    <path d="M 685.667628 330.6 
L 679.046574 330.6 
L 679.046574 319.448276 
L 682.381065 319.448276 
" clip-path="url(#pf310eadc34)" style="fill: none; stroke: #1f77b4; stroke-width: 1.5"/>
    <path d="M 680.811874 342.765517 
L 671.099288 342.765517 
L 671.099288 325.024138 
L 679.046574 325.024138 
" clip-path="url(#pf310eadc34)" style="fill: none; stroke: #1f77b4; stroke-width: 1.5"/>
    <path d="M 705.6 309.310345 
L 683.253386 309.310345 
L 683.253386 305.255172 
L 705.6 305.255172 
" clip-path="url(#pf310eadc34)" style="fill: none; stroke: #1f77b4; stroke-width: 1.5"/>
    <path d="M 705.6 313.365517 
L 674.512835 313.365517 
L 674.512835 307.282759 
L 683.253386 307.282759 
" clip-path="url(#pf310eadc34)" style="fill: none; stroke: #1f77b4; stroke-width: 1.5"/>
    <path d="M 705.6 293.089655 
L 684.903589 293.089655 
L 684.903589 289.034483 
L 705.6 289.034483 
" clip-path="url(#pf310eadc34)" style="fill: none; stroke: #1f77b4; stroke-width: 1.5"/>
    <path d="M 705.6 297.144828 
L 680.2235 297.144828 
L 680.2235 291.062069 
L 684.903589 291.062069 
" clip-path="url(#pf310eadc34)" style="fill: none; stroke: #1f77b4; stroke-width: 1.5"/>
    <path d="M 705.6 301.2 
L 674.148381 301.2 
L 674.148381 294.103448 
L 680.2235 294.103448 
" clip-path="url(#pf310eadc34)" style="fill: none; stroke: #1f77b4; stroke-width: 1.5"/>
    <path d="M 674.512835 310.324138 
L 667.952308 310.324138 
L 667.952308 297.651724 
L 674.148381 297.651724 
" clip-path="url(#pf310eadc34)" style="fill: none; stroke: #1f77b4; stroke-width: 1.5"/>
    <path d="M 671.099288 333.894828 
L 661.788434 333.894828 
L 661.788434 303.987931 
L 667.952308 303.987931 
" clip-path="url(#pf310eadc34)" style="fill: none; stroke: #1f77b4; stroke-width: 1.5"/>
    <path d="M 705.6 284.97931 
L 684.772839 284.97931 
L 684.772839 280.924138 
L 705.6 280.924138 
" clip-path="url(#pf310eadc34)" style="fill: none; stroke: #1f77b4; stroke-width: 1.5"/>
    <path d="M 705.6 276.868966 
L 681.084174 276.868966 
L 681.084174 272.813793 
L 705.6 272.813793 
" clip-path="url(#pf310eadc34)" style="fill: none; stroke: #1f77b4; stroke-width: 1.5"/>
    <path d="M 684.772839 282.951724 
L 669.51622 282.951724 
L 669.51622 274.841379 
L 681.084174 274.841379 
" clip-path="url(#pf310eadc34)" style="fill: none; stroke: #1f77b4; stroke-width: 1.5"/>
    <path d="M 705.6 264.703448 
L 679.842699 264.703448 
L 679.842699 260.648276 
L 705.6 260.648276 
" clip-path="url(#pf310eadc34)" style="fill: none; stroke: #1f77b4; stroke-width: 1.5"/>
    <path d="M 705.6 268.758621 
L 673.849461 268.758621 
L 673.849461 262.675862 
L 679.842699 262.675862 
" clip-path="url(#pf310eadc34)" style="fill: none; stroke: #1f77b4; stroke-width: 1.5"/>
    <path d="M 705.6 248.482759 
L 685.859953 248.482759 
L 685.859953 244.427586 
L 705.6 244.427586 
" clip-path="url(#pf310eadc34)" style="fill: none; stroke: #1f77b4; stroke-width: 1.5"/>
    <path d="M 705.6 252.537931 
L 684.74024 252.537931 
L 684.74024 246.455172 
L 685.859953 246.455172 
" clip-path="url(#pf310eadc34)" style="fill: none; stroke: #1f77b4; stroke-width: 1.5"/>
    <path d="M 705.6 256.593103 
L 682.520101 256.593103 
L 682.520101 249.496552 
L 684.74024 249.496552 
" clip-path="url(#pf310eadc34)" style="fill: none; stroke: #1f77b4; stroke-width: 1.5"/>
    <path d="M 705.6 232.262069 
L 685.139911 232.262069 
L 685.139911 228.206897 
L 705.6 228.206897 
" clip-path="url(#pf310eadc34)" style="fill: none; stroke: #1f77b4; stroke-width: 1.5"/>
    <path d="M 705.6 236.317241 
L 683.546731 236.317241 
L 683.546731 230.234483 
L 685.139911 230.234483 
" clip-path="url(#pf310eadc34)" style="fill: none; stroke: #1f77b4; stroke-width: 1.5"/>
    <path d="M 705.6 224.151724 
L 681.547562 224.151724 
L 681.547562 220.096552 
L 705.6 220.096552 
" clip-path="url(#pf310eadc34)" style="fill: none; stroke: #1f77b4; stroke-width: 1.5"/>
    <path d="M 683.546731 233.275862 
L 680.713885 233.275862 
L 680.713885 222.124138 
L 681.547562 222.124138 
" clip-path="url(#pf310eadc34)" style="fill: none; stroke: #1f77b4; stroke-width: 1.5"/>
    <path d="M 705.6 240.372414 
L 679.014528 240.372414 
L 679.014528 227.7 
L 680.713885 227.7 
" clip-path="url(#pf310eadc34)" style="fill: none; stroke: #1f77b4; stroke-width: 1.5"/>
    <path d="M 682.520101 253.044828 
L 672.096608 253.044828 
L 672.096608 234.036207 
L 679.014528 234.036207 
" clip-path="url(#pf310eadc34)" style="fill: none; stroke: #1f77b4; stroke-width: 1.5"/>
    <path d="M 673.849461 265.717241 
L 665.011809 265.717241 
L 665.011809 243.540517 
L 672.096608 243.540517 
" clip-path="url(#pf310eadc34)" style="fill: none; stroke: #1f77b4; stroke-width: 1.5"/>
    <path d="M 669.51622 278.896552 
L 644.318907 278.896552 
L 644.318907 254.628879 
L 665.011809 254.628879 
" clip-path="url(#pf310eadc34)" style="fill: none; stroke: #1f77b4; stroke-width: 1.5"/>
    <path d="M 661.788434 318.941379 
L 617.585973 318.941379 
L 617.585973 266.762716 
L 644.318907 266.762716 
" clip-path="url(#pf310eadc34)" style="fill: none; stroke: #1f77b4; stroke-width: 1.5"/>
    <path d="M 705.6 207.931034 
L 686.397015 207.931034 
L 686.397015 203.875862 
L 705.6 203.875862 
" clip-path="url(#pf310eadc34)" style="fill: none; stroke: #1f77b4; stroke-width: 1.5"/>
    <path d="M 705.6 211.986207 
L 684.240251 211.986207 
L 684.240251 205.903448 
L 686.397015 205.903448 
" clip-path="url(#pf310eadc34)" style="fill: none; stroke: #1f77b4; stroke-width: 1.5"/>
    <path d="M 705.6 216.041379 
L 676.615606 216.041379 
L 676.615606 208.944828 
L 684.240251 208.944828 
" clip-path="url(#pf310eadc34)" style="fill: none; stroke: #1f77b4; stroke-width: 1.5"/>
    <path d="M 705.6 195.765517 
L 684.721462 195.765517 
L 684.721462 191.710345 
L 705.6 191.710345 
" clip-path="url(#pf310eadc34)" style="fill: none; stroke: #1f77b4; stroke-width: 1.5"/>
    <path d="M 705.6 179.544828 
L 685.5606 179.544828 
L 685.5606 175.489655 
L 705.6 175.489655 
" clip-path="url(#pf310eadc34)" style="fill: none; stroke: #1f77b4; stroke-width: 1.5"/>
    <path d="M 705.6 183.6 
L 684.453859 183.6 
L 684.453859 177.517241 
L 685.5606 177.517241 
" clip-path="url(#pf310eadc34)" style="fill: none; stroke: #1f77b4; stroke-width: 1.5"/>
    <path d="M 705.6 187.655172 
L 678.111255 187.655172 
L 678.111255 180.558621 
L 684.453859 180.558621 
" clip-path="url(#pf310eadc34)" style="fill: none; stroke: #1f77b4; stroke-width: 1.5"/>
    <path d="M 684.721462 193.737931 
L 675.92904 193.737931 
L 675.92904 184.106897 
L 678.111255 184.106897 
" clip-path="url(#pf310eadc34)" style="fill: none; stroke: #1f77b4; stroke-width: 1.5"/>
    <path d="M 705.6 171.434483 
L 681.361283 171.434483 
L 681.361283 167.37931 
L 705.6 167.37931 
" clip-path="url(#pf310eadc34)" style="fill: none; stroke: #1f77b4; stroke-width: 1.5"/>
    <path d="M 705.6 159.268966 
L 679.826125 159.268966 
L 679.826125 155.213793 
L 705.6 155.213793 
" clip-path="url(#pf310eadc34)" style="fill: none; stroke: #1f77b4; stroke-width: 1.5"/>
    <path d="M 705.6 163.324138 
L 676.147197 163.324138 
L 676.147197 157.241379 
L 679.826125 157.241379 
" clip-path="url(#pf310eadc34)" style="fill: none; stroke: #1f77b4; stroke-width: 1.5"/>
    <path d="M 681.361283 169.406897 
L 673.968229 169.406897 
L 673.968229 160.282759 
L 676.147197 160.282759 
" clip-path="url(#pf310eadc34)" style="fill: none; stroke: #1f77b4; stroke-width: 1.5"/>
    <path d="M 675.92904 188.922414 
L 666.610008 188.922414 
L 666.610008 164.844828 
L 673.968229 164.844828 
" clip-path="url(#pf310eadc34)" style="fill: none; stroke: #1f77b4; stroke-width: 1.5"/>
    <path d="M 705.6 199.82069 
L 661.303414 199.82069 
L 661.303414 176.883621 
L 666.610008 176.883621 
" clip-path="url(#pf310eadc34)" style="fill: none; stroke: #1f77b4; stroke-width: 1.5"/>
    <path d="M 676.615606 212.493103 
L 650.29881 212.493103 
L 650.29881 188.352155 
L 661.303414 188.352155 
" clip-path="url(#pf310eadc34)" style="fill: none; stroke: #1f77b4; stroke-width: 1.5"/>
    <path d="M 705.6 151.158621 
L 685.501363 151.158621 
L 685.501363 147.103448 
L 705.6 147.103448 
" clip-path="url(#pf310eadc34)" style="fill: none; stroke: #1f77b4; stroke-width: 1.5"/>
    <path d="M 705.6 143.048276 
L 684.303614 143.048276 
L 684.303614 138.993103 
L 705.6 138.993103 
" clip-path="url(#pf310eadc34)" style="fill: none; stroke: #1f77b4; stroke-width: 1.5"/>
    <path d="M 685.501363 149.131034 
L 682.823543 149.131034 
L 682.823543 141.02069 
L 684.303614 141.02069 
" clip-path="url(#pf310eadc34)" style="fill: none; stroke: #1f77b4; stroke-width: 1.5"/>
    <path d="M 705.6 126.827586 
L 685.30113 126.827586 
L 685.30113 122.772414 
L 705.6 122.772414 
" clip-path="url(#pf310eadc34)" style="fill: none; stroke: #1f77b4; stroke-width: 1.5"/>
    <path d="M 705.6 130.882759 
L 681.182436 130.882759 
L 681.182436 124.8 
L 685.30113 124.8 
" clip-path="url(#pf310eadc34)" style="fill: none; stroke: #1f77b4; stroke-width: 1.5"/>
    <path d="M 705.6 134.937931 
L 671.087971 134.937931 
L 671.087971 127.841379 
L 681.182436 127.841379 
" clip-path="url(#pf310eadc34)" style="fill: none; stroke: #1f77b4; stroke-width: 1.5"/>
    <path d="M 682.823543 145.075862 
L 656.115464 145.075862 
L 656.115464 131.389655 
L 671.087971 131.389655 
" clip-path="url(#pf310eadc34)" style="fill: none; stroke: #1f77b4; stroke-width: 1.5"/>
    <path d="M 705.6 114.662069 
L 686.794164 114.662069 
L 686.794164 110.606897 
L 705.6 110.606897 
" clip-path="url(#pf310eadc34)" style="fill: none; stroke: #1f77b4; stroke-width: 1.5"/>
    <path d="M 705.6 118.717241 
L 685.617753 118.717241 
L 685.617753 112.634483 
L 686.794164 112.634483 
" clip-path="url(#pf310eadc34)" style="fill: none; stroke: #1f77b4; stroke-width: 1.5"/>
    <path d="M 705.6 106.551724 
L 685.776204 106.551724 
L 685.776204 102.496552 
L 705.6 102.496552 
" clip-path="url(#pf310eadc34)" style="fill: none; stroke: #1f77b4; stroke-width: 1.5"/>
    <path d="M 705.6 98.441379 
L 685.725807 98.441379 
L 685.725807 94.386207 
L 705.6 94.386207 
" clip-path="url(#pf310eadc34)" style="fill: none; stroke: #1f77b4; stroke-width: 1.5"/>
    <path d="M 685.776204 104.524138 
L 682.354139 104.524138 
L 682.354139 96.413793 
L 685.725807 96.413793 
" clip-path="url(#pf310eadc34)" style="fill: none; stroke: #1f77b4; stroke-width: 1.5"/>
    <path d="M 685.617753 115.675862 
L 671.73219 115.675862 
L 671.73219 100.468966 
L 682.354139 100.468966 
" clip-path="url(#pf310eadc34)" style="fill: none; stroke: #1f77b4; stroke-width: 1.5"/>
    <path d="M 705.6 82.22069 
L 685.062462 82.22069 
L 685.062462 78.165517 
L 705.6 78.165517 
" clip-path="url(#pf310eadc34)" style="fill: none; stroke: #1f77b4; stroke-width: 1.5"/>
    <path d="M 705.6 86.275862 
L 682.442994 86.275862 
L 682.442994 80.193103 
L 685.062462 80.193103 
" clip-path="url(#pf310eadc34)" style="fill: none; stroke: #1f77b4; stroke-width: 1.5"/>
    <path d="M 705.6 90.331034 
L 680.153022 90.331034 
L 680.153022 83.234483 
L 682.442994 83.234483 
" clip-path="url(#pf310eadc34)" style="fill: none; stroke: #1f77b4; stroke-width: 1.5"/>
    <path d="M 705.6 70.055172 
L 687.816157 70.055172 
L 687.816157 66 
L 705.6 66 
" clip-path="url(#pf310eadc34)" style="fill: none; stroke: #1f77b4; stroke-width: 1.5"/>
    <path d="M 705.6 61.944828 
L 686.08132 61.944828 
L 686.08132 57.889655 
L 705.6 57.889655 
" clip-path="url(#pf310eadc34)" style="fill: none; stroke: #1f77b4; stroke-width: 1.5"/>
    <path d="M 687.816157 68.027586 
L 684.322894 68.027586 
L 684.322894 59.917241 
L 686.08132 59.917241 
" clip-path="url(#pf310eadc34)" style="fill: none; stroke: #1f77b4; stroke-width: 1.5"/>
    <path d="M 705.6 74.110345 
L 681.705581 74.110345 
L 681.705581 63.972414 
L 684.322894 63.972414 
" clip-path="url(#pf310eadc34)" style="fill: none; stroke: #1f77b4; stroke-width: 1.5"/>
    <path d="M 705.6 45.724138 
L 687.139018 45.724138 
L 687.139018 41.668966 
L 705.6 41.668966 
" clip-path="url(#pf310eadc34)" style="fill: none; stroke: #1f77b4; stroke-width: 1.5"/>
    <path d="M 705.6 49.77931 
L 685.879361 49.77931 
L 685.879361 43.696552 
L 687.139018 43.696552 
" clip-path="url(#pf310eadc34)" style="fill: none; stroke: #1f77b4; stroke-width: 1.5"/>
    <path d="M 705.6 53.834483 
L 682.227803 53.834483 
L 682.227803 46.737931 
L 685.879361 46.737931 
" clip-path="url(#pf310eadc34)" style="fill: none; stroke: #1f77b4; stroke-width: 1.5"/>
    <path d="M 705.6 29.503448 
L 686.08769 29.503448 
L 686.08769 25.448276 
L 705.6 25.448276 
" clip-path="url(#pf310eadc34)" style="fill: none; stroke: #1f77b4; stroke-width: 1.5"/>
    <path d="M 705.6 33.558621 
L 682.928091 33.558621 
L 682.928091 27.475862 
L 686.08769 27.475862 
" clip-path="url(#pf310eadc34)" style="fill: none; stroke: #1f77b4; stroke-width: 1.5"/>
    <path d="M 705.6 37.613793 
L 681.383827 37.613793 
L 681.383827 30.517241 
L 682.928091 30.517241 
" clip-path="url(#pf310eadc34)" style="fill: none; stroke: #1f77b4; stroke-width: 1.5"/>
    <path d="M 682.227803 50.286207 
L 679.143402 50.286207 
L 679.143402 34.065517 
L 681.383827 34.065517 
" clip-path="url(#pf310eadc34)" style="fill: none; stroke: #1f77b4; stroke-width: 1.5"/>
    <path d="M 681.705581 69.041379 
L 677.150051 69.041379 
L 677.150051 42.175862 
L 679.143402 42.175862 
" clip-path="url(#pf310eadc34)" style="fill: none; stroke: #1f77b4; stroke-width: 1.5"/>
    <path d="M 705.6 13.282759 
L 685.240217 13.282759 
L 685.240217 9.227586 
L 705.6 9.227586 
" clip-path="url(#pf310eadc34)" style="fill: none; stroke: #1f77b4; stroke-width: 1.5"/>
    <path d="M 705.6 17.337931 
L 683.97572 17.337931 
L 683.97572 11.255172 
L 685.240217 11.255172 
" clip-path="url(#pf310eadc34)" style="fill: none; stroke: #1f77b4; stroke-width: 1.5"/>
    <path d="M 705.6 21.393103 
L 676.92126 21.393103 
L 676.92126 14.296552 
L 683.97572 14.296552 
" clip-path="url(#pf310eadc34)" style="fill: none; stroke: #1f77b4; stroke-width: 1.5"/>
    <path d="M 677.150051 55.608621 
L 674.507187 55.608621 
L 674.507187 17.844828 
L 676.92126 17.844828 
" clip-path="url(#pf310eadc34)" style="fill: none; stroke: #1f77b4; stroke-width: 1.5"/>
    <path d="M 680.153022 86.782759 
L 660.26468 86.782759 
L 660.26468 36.726724 
L 674.507187 36.726724 
" clip-path="url(#pf310eadc34)" style="fill: none; stroke: #1f77b4; stroke-width: 1.5"/>
    <path d="M 671.73219 108.072414 
L 643.596293 108.072414 
L 643.596293 61.754741 
L 660.26468 61.754741 
" clip-path="url(#pf310eadc34)" style="fill: none; stroke: #1f77b4; stroke-width: 1.5"/>
    <path d="M 656.115464 138.232759 
L 625.063364 138.232759 
L 625.063364 84.913578 
L 643.596293 84.913578 
" clip-path="url(#pf310eadc34)" style="fill: none; stroke: #1f77b4; stroke-width: 1.5"/>
    <path d="M 650.29881 200.422629 
L 597.779472 200.422629 
L 597.779472 111.573168 
L 625.063364 111.573168 
" clip-path="url(#pf310eadc34)" style="fill: none; stroke: #1f77b4; stroke-width: 1.5"/>
    <path d="M 617.585973 292.852047 
L 538.95713 292.852047 
L 538.95713 155.997899 
L 597.779472 155.997899 
" clip-path="url(#pf310eadc34)" style="fill: none; stroke: #1f77b4; stroke-width: 1.5"/>
    <path d="M 558.088554 449.548424 
L 311.780004 449.548424 
L 311.780004 224.424973 
L 538.95713 224.424973 
" clip-path="url(#pf310eadc34)" style="fill: none; stroke: #1f77b4; stroke-width: 1.5"/>
    <path d="M 437.682627 900.632893 
L 40.457143 900.632893 
L 40.457143 336.986699 
L 311.780004 336.986699 
" clip-path="url(#pf310eadc34)" style="fill: none; stroke: #1f77b4; stroke-width: 1.5"/>
   </g>
  </g>
 </g>
 <defs>
  <clipPath id="pf310eadc34">
   <rect x="7.2" y="7.2" width="698.4" height="1058.4"/>
  </clipPath>
 </defs>
</svg>
