<?xml version="1.0" encoding="UTF-8" standalone="no"?>
<!DOCTYPE svg PUBLIC "-//W3C//DTD SVG 1.1//EN"
 "http://www.w3.org/Graphics/SVG/1.1/DTD/svg11.dtd">
<!-- Generated by graphviz version 2.50.0 (20211204.2007)
 -->
<!-- Pages: 1 -->
<svg width="1478pt" height="476pt"
 viewBox="0.00 0.00 1478.00 476.00" xmlns="http://www.w3.org/2000/svg" xmlns:xlink="http://www.w3.org/1999/xlink">
<g id="graph0" class="graph" transform="scale(1 1) rotate(0) translate(4 472)">
<polygon fill="white" stroke="transparent" points="-4,4 -4,-472 1474,-472 1474,4 -4,4"/>
<!-- Bacteroides -->
<g id="node1" class="node">
<title>Bacteroides</title>
<path fill="#1f77b4" stroke="black" d="M1291.5,-36C1291.5,-36 1200.5,-36 1200.5,-36 1194.5,-36 1188.5,-30 1188.5,-24 1188.5,-24 1188.5,-12 1188.5,-12 1188.5,-6 1194.5,0 1200.5,0 1200.5,0 1291.5,0 1291.5,0 1297.5,0 1303.5,-6 1303.5,-12 1303.5,-12 1303.5,-24 1303.5,-24 1303.5,-30 1297.5,-36 1291.5,-36"/>
<text text-anchor="middle" x="1246" y="-16.1" font-family="Helvetica,sans-Serif" font-size="8.00">Bacteroides</text>
</g>
<!-- Clostridium -->
<g id="node2" class="node">
<title>Clostridium</title>
<path fill="#ff7f0e" stroke="black" d="M712,-36C712,-36 624,-36 624,-36 618,-36 612,-30 612,-24 612,-24 612,-12 612,-12 612,-6 618,0 624,0 624,0 712,0 712,0 718,0 724,-6 724,-12 724,-12 724,-24 724,-24 724,-30 718,-36 712,-36"/>
<text text-anchor="middle" x="668" y="-16.1" font-family="Helvetica,sans-Serif" font-size="8.00">Clostridium</text>
</g>
<!-- Eubacterium -->
<g id="node3" class="node">
<title>Eubacterium</title>
<path fill="#2ca02c" stroke="black" d="M571,-36C571,-36 477,-36 477,-36 471,-36 465,-30 465,-24 465,-24 465,-12 465,-12 465,-6 471,0 477,0 477,0 571,0 571,0 577,0 583,-6 583,-12 583,-12 583,-24 583,-24 583,-30 577,-36 571,-36"/>
<text text-anchor="middle" x="524" y="-16.1" font-family="Helvetica,sans-Serif" font-size="8.00">Eubacterium</text>
</g>
<!-- Streptococcus -->
<g id="node4" class="node">
<title>Streptococcus</title>
<path fill="#d62728" stroke="black" d="M423.5,-36C423.5,-36 324.5,-36 324.5,-36 318.5,-36 312.5,-30 312.5,-24 312.5,-24 312.5,-12 312.5,-12 312.5,-6 318.5,0 324.5,0 324.5,0 423.5,0 423.5,0 429.5,0 435.5,-6 435.5,-12 435.5,-12 435.5,-24 435.5,-24 435.5,-30 429.5,-36 423.5,-36"/>
<text text-anchor="middle" x="374" y="-16.1" font-family="Helvetica,sans-Serif" font-size="8.00">Streptococcus</text>
</g>
<!-- Bifidobacterium -->
<g id="node5" class="node">
<title>Bifidobacterium</title>
<path fill="#9467bd" stroke="black" d="M120.5,-36C120.5,-36 17.5,-36 17.5,-36 11.5,-36 5.5,-30 5.5,-24 5.5,-24 5.5,-12 5.5,-12 5.5,-6 11.5,0 17.5,0 17.5,0 120.5,0 120.5,0 126.5,0 132.5,-6 132.5,-12 132.5,-12 132.5,-24 132.5,-24 132.5,-30 126.5,-36 120.5,-36"/>
<text text-anchor="middle" x="69" y="-16.1" font-family="Helvetica,sans-Serif" font-size="8.00">Bifidobacterium</text>
</g>
<!-- Escherichia -->
<g id="node6" class="node">
<title>Escherichia</title>
<path fill="#8c564b" stroke="black" d="M1443.5,-36C1443.5,-36 1354.5,-36 1354.5,-36 1348.5,-36 1342.5,-30 1342.5,-24 1342.5,-24 1342.5,-12 1342.5,-12 1342.5,-6 1348.5,0 1354.5,0 1354.5,0 1443.5,0 1443.5,0 1449.5,0 1455.5,-6 1455.5,-12 1455.5,-12 1455.5,-24 1455.5,-24 1455.5,-30 1449.5,-36 1443.5,-36"/>
<text text-anchor="middle" x="1399" y="-16.1" font-family="Helvetica,sans-Serif" font-size="8.00">Escherichia</text>
</g>
<!-- Ruminococcus -->
<g id="node7" class="node">
<title>Ruminococcus</title>
<path fill="#e377c2" stroke="black" d="M863,-36C863,-36 763,-36 763,-36 757,-36 751,-30 751,-24 751,-24 751,-12 751,-12 751,-6 757,0 763,0 763,0 863,0 863,0 869,0 875,-6 875,-12 875,-12 875,-24 875,-24 875,-30 869,-36 863,-36"/>
<text text-anchor="middle" x="813" y="-16.1" font-family="Helvetica,sans-Serif" font-size="8.00">Ruminococcus</text>
</g>
<!-- Parabacteroides -->
<g id="node8" class="node">
<title>Parabacteroides</title>
<path fill="#7f7f7f" stroke="black" d="M1013.5,-36C1013.5,-36 906.5,-36 906.5,-36 900.5,-36 894.5,-30 894.5,-24 894.5,-24 894.5,-12 894.5,-12 894.5,-6 900.5,0 906.5,0 906.5,0 1013.5,0 1013.5,0 1019.5,0 1025.5,-6 1025.5,-12 1025.5,-12 1025.5,-24 1025.5,-24 1025.5,-30 1019.5,-36 1013.5,-36"/>
<text text-anchor="middle" x="960" y="-16.1" font-family="Helvetica,sans-Serif" font-size="8.00">Parabacteroides</text>
</g>
<!-- Alistipes -->
<g id="node9" class="node">
<title>Alistipes</title>
<path fill="#bcbd22" stroke="black" d="M1141.5,-36C1141.5,-36 1064.5,-36 1064.5,-36 1058.5,-36 1052.5,-30 1052.5,-24 1052.5,-24 1052.5,-12 1052.5,-12 1052.5,-6 1058.5,0 1064.5,0 1064.5,0 1141.5,0 1141.5,0 1147.5,0 1153.5,-6 1153.5,-12 1153.5,-12 1153.5,-24 1153.5,-24 1153.5,-30 1147.5,-36 1141.5,-36"/>
<text text-anchor="middle" x="1103" y="-16.1" font-family="Helvetica,sans-Serif" font-size="8.00">Alistipes</text>
</g>
<!-- Lactobacillus -->
<g id="node10" class="node">
<title>Lactobacillus</title>
<path fill="#17becf" stroke="black" d="M269,-36C269,-36 175,-36 175,-36 169,-36 163,-30 163,-24 163,-24 163,-12 163,-12 163,-6 169,0 175,0 175,0 269,0 269,0 275,0 281,-6 281,-12 281,-12 281,-24 281,-24 281,-30 275,-36 269,-36"/>
<text text-anchor="middle" x="222" y="-16.1" font-family="Helvetica,sans-Serif" font-size="8.00">Lactobacillus</text>
</g>
<!-- Bacteria -->
<g id="node11" class="node">
<title>Bacteria</title>
<path fill="white" stroke="black" d="M876,-468C876,-468 798,-468 798,-468 792,-468 786,-462 786,-456 786,-456 786,-444 786,-444 786,-438 792,-432 798,-432 798,-432 876,-432 876,-432 882,-432 888,-438 888,-444 888,-444 888,-456 888,-456 888,-462 882,-468 876,-468"/>
<text text-anchor="middle" x="837" y="-448.1" font-family="Helvetica,sans-Serif" font-size="8.00">Bacteria</text>
</g>
<!-- Bacillati -->
<g id="node12" class="node">
<title>Bacillati</title>
<path fill="white" stroke="black" d="M585.5,-396C585.5,-396 510.5,-396 510.5,-396 504.5,-396 498.5,-390 498.5,-384 498.5,-384 498.5,-372 498.5,-372 498.5,-366 504.5,-360 510.5,-360 510.5,-360 585.5,-360 585.5,-360 591.5,-360 597.5,-366 597.5,-372 597.5,-372 597.5,-384 597.5,-384 597.5,-390 591.5,-396 585.5,-396"/>
<text text-anchor="middle" x="548" y="-376.1" font-family="Helvetica,sans-Serif" font-size="8.00">Bacillati</text>
</g>
<!-- Bacteria&#45;&gt;Bacillati -->
<g id="edge1" class="edge">
<title>Bacteria&#45;&gt;Bacillati</title>
<path fill="none" stroke="black" d="M786,-436.65C736.07,-424.55 660.03,-406.14 607.4,-393.39"/>
<polygon fill="black" stroke="black" points="608.07,-389.95 597.53,-391 606.42,-396.75 608.07,-389.95"/>
</g>
<!-- Pseudomonadati -->
<g id="node27" class="node">
<title>Pseudomonadati</title>
<path fill="white" stroke="black" d="M1157.5,-396C1157.5,-396 1048.5,-396 1048.5,-396 1042.5,-396 1036.5,-390 1036.5,-384 1036.5,-384 1036.5,-372 1036.5,-372 1036.5,-366 1042.5,-360 1048.5,-360 1048.5,-360 1157.5,-360 1157.5,-360 1163.5,-360 1169.5,-366 1169.5,-372 1169.5,-372 1169.5,-384 1169.5,-384 1169.5,-390 1163.5,-396 1157.5,-396"/>
<text text-anchor="middle" x="1103" y="-376.1" font-family="Helvetica,sans-Serif" font-size="8.00">Pseudomonadati</text>
</g>
<!-- Bacteria&#45;&gt;Pseudomonadati -->
<g id="edge22" class="edge">
<title>Bacteria&#45;&gt;Pseudomonadati</title>
<path fill="none" stroke="black" d="M888.29,-435.5C928.01,-425.05 983.6,-410.42 1028.27,-398.67"/>
<polygon fill="black" stroke="black" points="1029.43,-401.98 1038.21,-396.05 1027.64,-395.21 1029.43,-401.98"/>
</g>
<!-- Actinomycetota -->
<g id="node13" class="node">
<title>Actinomycetota</title>
<path fill="white" stroke="black" d="M395.5,-324C395.5,-324 292.5,-324 292.5,-324 286.5,-324 280.5,-318 280.5,-312 280.5,-312 280.5,-300 280.5,-300 280.5,-294 286.5,-288 292.5,-288 292.5,-288 395.5,-288 395.5,-288 401.5,-288 407.5,-294 407.5,-300 407.5,-300 407.5,-312 407.5,-312 407.5,-318 401.5,-324 395.5,-324"/>
<text text-anchor="middle" x="344" y="-304.1" font-family="Helvetica,sans-Serif" font-size="8.00">Actinomycetota</text>
</g>
<!-- Bacillati&#45;&gt;Actinomycetota -->
<g id="edge2" class="edge">
<title>Bacillati&#45;&gt;Actinomycetota</title>
<path fill="none" stroke="black" d="M498.36,-359.97C469.73,-350.14 433.55,-337.73 403.42,-327.39"/>
<polygon fill="black" stroke="black" points="404.46,-324.05 393.87,-324.11 402.19,-330.67 404.46,-324.05"/>
</g>
<!-- Bacillota -->
<g id="node17" class="node">
<title>Bacillota</title>
<path fill="white" stroke="black" d="M587,-324C587,-324 509,-324 509,-324 503,-324 497,-318 497,-312 497,-312 497,-300 497,-300 497,-294 503,-288 509,-288 509,-288 587,-288 587,-288 593,-288 599,-294 599,-300 599,-300 599,-312 599,-312 599,-318 593,-324 587,-324"/>
<text text-anchor="middle" x="548" y="-304.1" font-family="Helvetica,sans-Serif" font-size="8.00">Bacillota</text>
</g>
<!-- Bacillati&#45;&gt;Bacillota -->
<g id="edge7" class="edge">
<title>Bacillati&#45;&gt;Bacillota</title>
<path fill="none" stroke="black" d="M548,-359.7C548,-351.98 548,-342.71 548,-334.11"/>
<polygon fill="black" stroke="black" points="551.5,-334.1 548,-324.1 544.5,-334.1 551.5,-334.1"/>
</g>
<!-- Actinomycetes -->
<g id="node14" class="node">
<title>Actinomycetes</title>
<path fill="white" stroke="black" d="M297,-252C297,-252 197,-252 197,-252 191,-252 185,-246 185,-240 185,-240 185,-228 185,-228 185,-222 191,-216 197,-216 197,-216 297,-216 297,-216 303,-216 309,-222 309,-228 309,-228 309,-240 309,-240 309,-246 303,-252 297,-252"/>
<text text-anchor="middle" x="247" y="-232.1" font-family="Helvetica,sans-Serif" font-size="8.00">Actinomycetes</text>
</g>
<!-- Actinomycetota&#45;&gt;Actinomycetes -->
<g id="edge3" class="edge">
<title>Actinomycetota&#45;&gt;Actinomycetes</title>
<path fill="none" stroke="black" d="M320.02,-287.7C307.69,-278.8 292.48,-267.82 279.15,-258.2"/>
<polygon fill="black" stroke="black" points="280.86,-255.12 270.7,-252.1 276.76,-260.79 280.86,-255.12"/>
</g>
<!-- Bifidobacteriales -->
<g id="node15" class="node">
<title>Bifidobacteriales</title>
<path fill="white" stroke="black" d="M202,-180C202,-180 96,-180 96,-180 90,-180 84,-174 84,-168 84,-168 84,-156 84,-156 84,-150 90,-144 96,-144 96,-144 202,-144 202,-144 208,-144 214,-150 214,-156 214,-156 214,-168 214,-168 214,-174 208,-180 202,-180"/>
<text text-anchor="middle" x="149" y="-160.1" font-family="Helvetica,sans-Serif" font-size="8.00">Bifidobacteriales</text>
</g>
<!-- Actinomycetes&#45;&gt;Bifidobacteriales -->
<g id="edge4" class="edge">
<title>Actinomycetes&#45;&gt;Bifidobacteriales</title>
<path fill="none" stroke="black" d="M223.03,-215.88C210.45,-206.89 194.87,-195.76 181.25,-186.03"/>
<polygon fill="black" stroke="black" points="183.24,-183.15 173.07,-180.19 179.17,-188.85 183.24,-183.15"/>
</g>
<!-- Bifidobacteriaceae -->
<g id="node16" class="node">
<title>Bifidobacteriaceae</title>
<path fill="white" stroke="black" d="M126,-108C126,-108 12,-108 12,-108 6,-108 0,-102 0,-96 0,-96 0,-84 0,-84 0,-78 6,-72 12,-72 12,-72 126,-72 126,-72 132,-72 138,-78 138,-84 138,-84 138,-96 138,-96 138,-102 132,-108 126,-108"/>
<text text-anchor="middle" x="69" y="-88.1" font-family="Helvetica,sans-Serif" font-size="8.00">Bifidobacteriaceae</text>
</g>
<!-- Bifidobacteriales&#45;&gt;Bifidobacteriaceae -->
<g id="edge5" class="edge">
<title>Bifidobacteriales&#45;&gt;Bifidobacteriaceae</title>
<path fill="none" stroke="black" d="M129.22,-143.7C119.25,-134.97 106.99,-124.24 96.14,-114.75"/>
<polygon fill="black" stroke="black" points="98.38,-112.06 88.55,-108.1 93.77,-117.32 98.38,-112.06"/>
</g>
<!-- Bifidobacteriaceae&#45;&gt;Bifidobacterium -->
<g id="edge6" class="edge">
<title>Bifidobacteriaceae&#45;&gt;Bifidobacterium</title>
<path fill="none" stroke="black" d="M69,-71.7C69,-63.98 69,-54.71 69,-46.11"/>
<polygon fill="black" stroke="black" points="72.5,-46.1 69,-36.1 65.5,-46.1 72.5,-46.1"/>
</g>
<!-- Bacilli -->
<g id="node18" class="node">
<title>Bacilli</title>
<path fill="white" stroke="black" d="M416,-252C416,-252 348,-252 348,-252 342,-252 336,-246 336,-240 336,-240 336,-228 336,-228 336,-222 342,-216 348,-216 348,-216 416,-216 416,-216 422,-216 428,-222 428,-228 428,-228 428,-240 428,-240 428,-246 422,-252 416,-252"/>
<text text-anchor="middle" x="382" y="-232.1" font-family="Helvetica,sans-Serif" font-size="8.00">Bacilli</text>
</g>
<!-- Bacillota&#45;&gt;Bacilli -->
<g id="edge8" class="edge">
<title>Bacillota&#45;&gt;Bacilli</title>
<path fill="none" stroke="black" d="M507.39,-287.88C484.6,-278.26 455.97,-266.19 431.83,-256.01"/>
<polygon fill="black" stroke="black" points="433.05,-252.73 422.48,-252.07 430.33,-259.18 433.05,-252.73"/>
</g>
<!-- Clostridia -->
<g id="node22" class="node">
<title>Clostridia</title>
<path fill="white" stroke="black" d="M621,-252C621,-252 539,-252 539,-252 533,-252 527,-246 527,-240 527,-240 527,-228 527,-228 527,-222 533,-216 539,-216 539,-216 621,-216 621,-216 627,-216 633,-222 633,-228 633,-228 633,-240 633,-240 633,-246 627,-252 621,-252"/>
<text text-anchor="middle" x="580" y="-232.1" font-family="Helvetica,sans-Serif" font-size="8.00">Clostridia</text>
</g>
<!-- Bacillota&#45;&gt;Clostridia -->
<g id="edge14" class="edge">
<title>Bacillota&#45;&gt;Clostridia</title>
<path fill="none" stroke="black" d="M555.91,-287.7C559.55,-279.73 563.95,-270.1 567.99,-261.26"/>
<polygon fill="black" stroke="black" points="571.21,-262.65 572.18,-252.1 564.84,-259.74 571.21,-262.65"/>
</g>
<!-- Lactobacillales -->
<g id="node19" class="node">
<title>Lactobacillales</title>
<path fill="white" stroke="black" d="M424,-180C424,-180 324,-180 324,-180 318,-180 312,-174 312,-168 312,-168 312,-156 312,-156 312,-150 318,-144 324,-144 324,-144 424,-144 424,-144 430,-144 436,-150 436,-156 436,-156 436,-168 436,-168 436,-174 430,-180 424,-180"/>
<text text-anchor="middle" x="374" y="-160.1" font-family="Helvetica,sans-Serif" font-size="8.00">Lactobacillales</text>
</g>
<!-- Bacilli&#45;&gt;Lactobacillales -->
<g id="edge9" class="edge">
<title>Bacilli&#45;&gt;Lactobacillales</title>
<path fill="none" stroke="black" d="M380.02,-215.7C379.14,-207.98 378.08,-198.71 377.1,-190.11"/>
<polygon fill="black" stroke="black" points="380.57,-189.64 375.95,-180.1 373.61,-190.44 380.57,-189.64"/>
</g>
<!-- Lactobacillaceae -->
<g id="node20" class="node">
<title>Lactobacillaceae</title>
<path fill="white" stroke="black" d="M275.5,-108C275.5,-108 168.5,-108 168.5,-108 162.5,-108 156.5,-102 156.5,-96 156.5,-96 156.5,-84 156.5,-84 156.5,-78 162.5,-72 168.5,-72 168.5,-72 275.5,-72 275.5,-72 281.5,-72 287.5,-78 287.5,-84 287.5,-84 287.5,-96 287.5,-96 287.5,-102 281.5,-108 275.5,-108"/>
<text text-anchor="middle" x="222" y="-88.1" font-family="Helvetica,sans-Serif" font-size="8.00">Lactobacillaceae</text>
</g>
<!-- Lactobacillales&#45;&gt;Lactobacillaceae -->
<g id="edge10" class="edge">
<title>Lactobacillales&#45;&gt;Lactobacillaceae</title>
<path fill="none" stroke="black" d="M336.82,-143.88C316.13,-134.35 290.2,-122.41 268.22,-112.28"/>
<polygon fill="black" stroke="black" points="269.61,-109.07 259.06,-108.07 266.68,-115.43 269.61,-109.07"/>
</g>
<!-- Streptococcaceae -->
<g id="node21" class="node">
<title>Streptococcaceae</title>
<path fill="white" stroke="black" d="M430,-108C430,-108 318,-108 318,-108 312,-108 306,-102 306,-96 306,-96 306,-84 306,-84 306,-78 312,-72 318,-72 318,-72 430,-72 430,-72 436,-72 442,-78 442,-84 442,-84 442,-96 442,-96 442,-102 436,-108 430,-108"/>
<text text-anchor="middle" x="374" y="-88.1" font-family="Helvetica,sans-Serif" font-size="8.00">Streptococcaceae</text>
</g>
<!-- Lactobacillales&#45;&gt;Streptococcaceae -->
<g id="edge12" class="edge">
<title>Lactobacillales&#45;&gt;Streptococcaceae</title>
<path fill="none" stroke="black" d="M374,-143.7C374,-135.98 374,-126.71 374,-118.11"/>
<polygon fill="black" stroke="black" points="377.5,-118.1 374,-108.1 370.5,-118.1 377.5,-118.1"/>
</g>
<!-- Lactobacillaceae&#45;&gt;Lactobacillus -->
<g id="edge11" class="edge">
<title>Lactobacillaceae&#45;&gt;Lactobacillus</title>
<path fill="none" stroke="black" d="M222,-71.7C222,-63.98 222,-54.71 222,-46.11"/>
<polygon fill="black" stroke="black" points="225.5,-46.1 222,-36.1 218.5,-46.1 225.5,-46.1"/>
</g>
<!-- Streptococcaceae&#45;&gt;Streptococcus -->
<g id="edge13" class="edge">
<title>Streptococcaceae&#45;&gt;Streptococcus</title>
<path fill="none" stroke="black" d="M374,-71.7C374,-63.98 374,-54.71 374,-46.11"/>
<polygon fill="black" stroke="black" points="377.5,-46.1 374,-36.1 370.5,-46.1 377.5,-46.1"/>
</g>
<!-- Eubacteriales -->
<g id="node23" class="node">
<title>Eubacteriales</title>
<path fill="white" stroke="black" d="M644.5,-180C644.5,-180 547.5,-180 547.5,-180 541.5,-180 535.5,-174 535.5,-168 535.5,-168 535.5,-156 535.5,-156 535.5,-150 541.5,-144 547.5,-144 547.5,-144 644.5,-144 644.5,-144 650.5,-144 656.5,-150 656.5,-156 656.5,-156 656.5,-168 656.5,-168 656.5,-174 650.5,-180 644.5,-180"/>
<text text-anchor="middle" x="596" y="-160.1" font-family="Helvetica,sans-Serif" font-size="8.00">Eubacteriales</text>
</g>
<!-- Clostridia&#45;&gt;Eubacteriales -->
<g id="edge15" class="edge">
<title>Clostridia&#45;&gt;Eubacteriales</title>
<path fill="none" stroke="black" d="M583.96,-215.7C585.72,-207.98 587.84,-198.71 589.8,-190.11"/>
<polygon fill="black" stroke="black" points="593.27,-190.63 592.09,-180.1 586.45,-189.07 593.27,-190.63"/>
</g>
<!-- Eubacteriaceae -->
<g id="node24" class="node">
<title>Eubacteriaceae</title>
<path fill="white" stroke="black" d="M576,-108C576,-108 472,-108 472,-108 466,-108 460,-102 460,-96 460,-96 460,-84 460,-84 460,-78 466,-72 472,-72 472,-72 576,-72 576,-72 582,-72 588,-78 588,-84 588,-84 588,-96 588,-96 588,-102 582,-108 576,-108"/>
<text text-anchor="middle" x="524" y="-88.1" font-family="Helvetica,sans-Serif" font-size="8.00">Eubacteriaceae</text>
</g>
<!-- Eubacteriales&#45;&gt;Eubacteriaceae -->
<g id="edge16" class="edge">
<title>Eubacteriales&#45;&gt;Eubacteriaceae</title>
<path fill="none" stroke="black" d="M578.2,-143.7C569.4,-135.14 558.62,-124.66 549,-115.3"/>
<polygon fill="black" stroke="black" points="551.2,-112.57 541.59,-108.1 546.32,-117.58 551.2,-112.57"/>
</g>
<!-- Clostridiaceae -->
<g id="node25" class="node">
<title>Clostridiaceae</title>
<path fill="white" stroke="black" d="M717.5,-108C717.5,-108 618.5,-108 618.5,-108 612.5,-108 606.5,-102 606.5,-96 606.5,-96 606.5,-84 606.5,-84 606.5,-78 612.5,-72 618.5,-72 618.5,-72 717.5,-72 717.5,-72 723.5,-72 729.5,-78 729.5,-84 729.5,-84 729.5,-96 729.5,-96 729.5,-102 723.5,-108 717.5,-108"/>
<text text-anchor="middle" x="668" y="-88.1" font-family="Helvetica,sans-Serif" font-size="8.00">Clostridiaceae</text>
</g>
<!-- Eubacteriales&#45;&gt;Clostridiaceae -->
<g id="edge18" class="edge">
<title>Eubacteriales&#45;&gt;Clostridiaceae</title>
<path fill="none" stroke="black" d="M613.8,-143.7C622.6,-135.14 633.38,-124.66 643,-115.3"/>
<polygon fill="black" stroke="black" points="645.68,-117.58 650.41,-108.1 640.8,-112.57 645.68,-117.58"/>
</g>
<!-- Oscillospiraceae -->
<g id="node26" class="node">
<title>Oscillospiraceae</title>
<path fill="white" stroke="black" d="M866,-108C866,-108 760,-108 760,-108 754,-108 748,-102 748,-96 748,-96 748,-84 748,-84 748,-78 754,-72 760,-72 760,-72 866,-72 866,-72 872,-72 878,-78 878,-84 878,-84 878,-96 878,-96 878,-102 872,-108 866,-108"/>
<text text-anchor="middle" x="813" y="-88.1" font-family="Helvetica,sans-Serif" font-size="8.00">Oscillospiraceae</text>
</g>
<!-- Eubacteriales&#45;&gt;Oscillospiraceae -->
<g id="edge20" class="edge">
<title>Eubacteriales&#45;&gt;Oscillospiraceae</title>
<path fill="none" stroke="black" d="M648.81,-143.97C679.39,-134.1 718.07,-121.62 750.21,-111.25"/>
<polygon fill="black" stroke="black" points="751.51,-114.51 759.96,-108.11 749.36,-107.85 751.51,-114.51"/>
</g>
<!-- Eubacteriaceae&#45;&gt;Eubacterium -->
<g id="edge17" class="edge">
<title>Eubacteriaceae&#45;&gt;Eubacterium</title>
<path fill="none" stroke="black" d="M524,-71.7C524,-63.98 524,-54.71 524,-46.11"/>
<polygon fill="black" stroke="black" points="527.5,-46.1 524,-36.1 520.5,-46.1 527.5,-46.1"/>
</g>
<!-- Clostridiaceae&#45;&gt;Clostridium -->
<g id="edge19" class="edge">
<title>Clostridiaceae&#45;&gt;Clostridium</title>
<path fill="none" stroke="black" d="M668,-71.7C668,-63.98 668,-54.71 668,-46.11"/>
<polygon fill="black" stroke="black" points="671.5,-46.1 668,-36.1 664.5,-46.1 671.5,-46.1"/>
</g>
<!-- Oscillospiraceae&#45;&gt;Ruminococcus -->
<g id="edge21" class="edge">
<title>Oscillospiraceae&#45;&gt;Ruminococcus</title>
<path fill="none" stroke="black" d="M813,-71.7C813,-63.98 813,-54.71 813,-46.11"/>
<polygon fill="black" stroke="black" points="816.5,-46.1 813,-36.1 809.5,-46.1 816.5,-46.1"/>
</g>
<!-- Bacteroidota -->
<g id="node28" class="node">
<title>Bacteroidota</title>
<path fill="white" stroke="black" d="M1150,-324C1150,-324 1056,-324 1056,-324 1050,-324 1044,-318 1044,-312 1044,-312 1044,-300 1044,-300 1044,-294 1050,-288 1056,-288 1056,-288 1150,-288 1150,-288 1156,-288 1162,-294 1162,-300 1162,-300 1162,-312 1162,-312 1162,-318 1156,-324 1150,-324"/>
<text text-anchor="middle" x="1103" y="-304.1" font-family="Helvetica,sans-Serif" font-size="8.00">Bacteroidota</text>
</g>
<!-- Pseudomonadati&#45;&gt;Bacteroidota -->
<g id="edge23" class="edge">
<title>Pseudomonadati&#45;&gt;Bacteroidota</title>
<path fill="none" stroke="black" d="M1103,-359.7C1103,-351.98 1103,-342.71 1103,-334.11"/>
<polygon fill="black" stroke="black" points="1106.5,-334.1 1103,-324.1 1099.5,-334.1 1106.5,-334.1"/>
</g>
<!-- Pseudomonadota -->
<g id="node34" class="node">
<title>Pseudomonadota</title>
<path fill="white" stroke="black" d="M1307,-324C1307,-324 1195,-324 1195,-324 1189,-324 1183,-318 1183,-312 1183,-312 1183,-300 1183,-300 1183,-294 1189,-288 1195,-288 1195,-288 1307,-288 1307,-288 1313,-288 1319,-294 1319,-300 1319,-300 1319,-312 1319,-312 1319,-318 1313,-324 1307,-324"/>
<text text-anchor="middle" x="1251" y="-304.1" font-family="Helvetica,sans-Serif" font-size="8.00">Pseudomonadota</text>
</g>
<!-- Pseudomonadati&#45;&gt;Pseudomonadota -->
<g id="edge32" class="edge">
<title>Pseudomonadati&#45;&gt;Pseudomonadota</title>
<path fill="none" stroke="black" d="M1139.2,-359.88C1159.26,-350.39 1184.37,-338.51 1205.71,-328.42"/>
<polygon fill="black" stroke="black" points="1207.37,-331.51 1214.91,-324.07 1204.38,-325.18 1207.37,-331.51"/>
</g>
<!-- Bacteroidia -->
<g id="node29" class="node">
<title>Bacteroidia</title>
<path fill="white" stroke="black" d="M1147,-252C1147,-252 1059,-252 1059,-252 1053,-252 1047,-246 1047,-240 1047,-240 1047,-228 1047,-228 1047,-222 1053,-216 1059,-216 1059,-216 1147,-216 1147,-216 1153,-216 1159,-222 1159,-228 1159,-228 1159,-240 1159,-240 1159,-246 1153,-252 1147,-252"/>
<text text-anchor="middle" x="1103" y="-232.1" font-family="Helvetica,sans-Serif" font-size="8.00">Bacteroidia</text>
</g>
<!-- Bacteroidota&#45;&gt;Bacteroidia -->
<g id="edge24" class="edge">
<title>Bacteroidota&#45;&gt;Bacteroidia</title>
<path fill="none" stroke="black" d="M1103,-287.7C1103,-279.98 1103,-270.71 1103,-262.11"/>
<polygon fill="black" stroke="black" points="1106.5,-262.1 1103,-252.1 1099.5,-262.1 1106.5,-262.1"/>
</g>
<!-- Bacteroidales -->
<g id="node30" class="node">
<title>Bacteroidales</title>
<path fill="white" stroke="black" d="M1151.5,-180C1151.5,-180 1054.5,-180 1054.5,-180 1048.5,-180 1042.5,-174 1042.5,-168 1042.5,-168 1042.5,-156 1042.5,-156 1042.5,-150 1048.5,-144 1054.5,-144 1054.5,-144 1151.5,-144 1151.5,-144 1157.5,-144 1163.5,-150 1163.5,-156 1163.5,-156 1163.5,-168 1163.5,-168 1163.5,-174 1157.5,-180 1151.5,-180"/>
<text text-anchor="middle" x="1103" y="-160.1" font-family="Helvetica,sans-Serif" font-size="8.00">Bacteroidales</text>
</g>
<!-- Bacteroidia&#45;&gt;Bacteroidales -->
<g id="edge25" class="edge">
<title>Bacteroidia&#45;&gt;Bacteroidales</title>
<path fill="none" stroke="black" d="M1103,-215.7C1103,-207.98 1103,-198.71 1103,-190.11"/>
<polygon fill="black" stroke="black" points="1106.5,-190.1 1103,-180.1 1099.5,-190.1 1106.5,-190.1"/>
</g>
<!-- Tannerellaceae -->
<g id="node31" class="node">
<title>Tannerellaceae</title>
<path fill="white" stroke="black" d="M1011.5,-108C1011.5,-108 908.5,-108 908.5,-108 902.5,-108 896.5,-102 896.5,-96 896.5,-96 896.5,-84 896.5,-84 896.5,-78 902.5,-72 908.5,-72 908.5,-72 1011.5,-72 1011.5,-72 1017.5,-72 1023.5,-78 1023.5,-84 1023.5,-84 1023.5,-96 1023.5,-96 1023.5,-102 1017.5,-108 1011.5,-108"/>
<text text-anchor="middle" x="960" y="-88.1" font-family="Helvetica,sans-Serif" font-size="8.00">Tannerellaceae</text>
</g>
<!-- Bacteroidales&#45;&gt;Tannerellaceae -->
<g id="edge26" class="edge">
<title>Bacteroidales&#45;&gt;Tannerellaceae</title>
<path fill="none" stroke="black" d="M1068.02,-143.88C1048.8,-134.47 1024.77,-122.71 1004.26,-112.67"/>
<polygon fill="black" stroke="black" points="1005.64,-109.44 995.12,-108.19 1002.56,-115.73 1005.64,-109.44"/>
</g>
<!-- Rikenellaceae -->
<g id="node32" class="node">
<title>Rikenellaceae</title>
<path fill="white" stroke="black" d="M1152,-108C1152,-108 1054,-108 1054,-108 1048,-108 1042,-102 1042,-96 1042,-96 1042,-84 1042,-84 1042,-78 1048,-72 1054,-72 1054,-72 1152,-72 1152,-72 1158,-72 1164,-78 1164,-84 1164,-84 1164,-96 1164,-96 1164,-102 1158,-108 1152,-108"/>
<text text-anchor="middle" x="1103" y="-88.1" font-family="Helvetica,sans-Serif" font-size="8.00">Rikenellaceae</text>
</g>
<!-- Bacteroidales&#45;&gt;Rikenellaceae -->
<g id="edge28" class="edge">
<title>Bacteroidales&#45;&gt;Rikenellaceae</title>
<path fill="none" stroke="black" d="M1103,-143.7C1103,-135.98 1103,-126.71 1103,-118.11"/>
<polygon fill="black" stroke="black" points="1106.5,-118.1 1103,-108.1 1099.5,-118.1 1106.5,-118.1"/>
</g>
<!-- Bacteroidaceae -->
<g id="node33" class="node">
<title>Bacteroidaceae</title>
<path fill="white" stroke="black" d="M1298,-108C1298,-108 1194,-108 1194,-108 1188,-108 1182,-102 1182,-96 1182,-96 1182,-84 1182,-84 1182,-78 1188,-72 1194,-72 1194,-72 1298,-72 1298,-72 1304,-72 1310,-78 1310,-84 1310,-84 1310,-96 1310,-96 1310,-102 1304,-108 1298,-108"/>
<text text-anchor="middle" x="1246" y="-88.1" font-family="Helvetica,sans-Serif" font-size="8.00">Bacteroidaceae</text>
</g>
<!-- Bacteroidales&#45;&gt;Bacteroidaceae -->
<g id="edge30" class="edge">
<title>Bacteroidales&#45;&gt;Bacteroidaceae</title>
<path fill="none" stroke="black" d="M1137.98,-143.88C1157.2,-134.47 1181.23,-122.71 1201.74,-112.67"/>
<polygon fill="black" stroke="black" points="1203.44,-115.73 1210.88,-108.19 1200.36,-109.44 1203.44,-115.73"/>
</g>
<!-- Tannerellaceae&#45;&gt;Parabacteroides -->
<g id="edge27" class="edge">
<title>Tannerellaceae&#45;&gt;Parabacteroides</title>
<path fill="none" stroke="black" d="M960,-71.7C960,-63.98 960,-54.71 960,-46.11"/>
<polygon fill="black" stroke="black" points="963.5,-46.1 960,-36.1 956.5,-46.1 963.5,-46.1"/>
</g>
<!-- Rikenellaceae&#45;&gt;Alistipes -->
<g id="edge29" class="edge">
<title>Rikenellaceae&#45;&gt;Alistipes</title>
<path fill="none" stroke="black" d="M1103,-71.7C1103,-63.98 1103,-54.71 1103,-46.11"/>
<polygon fill="black" stroke="black" points="1106.5,-46.1 1103,-36.1 1099.5,-46.1 1106.5,-46.1"/>
</g>
<!-- Bacteroidaceae&#45;&gt;Bacteroides -->
<g id="edge31" class="edge">
<title>Bacteroidaceae&#45;&gt;Bacteroides</title>
<path fill="none" stroke="black" d="M1246,-71.7C1246,-63.98 1246,-54.71 1246,-46.11"/>
<polygon fill="black" stroke="black" points="1249.5,-46.1 1246,-36.1 1242.5,-46.1 1249.5,-46.1"/>
</g>
<!-- Gammaproteobacteria -->
<g id="node35" class="node">
<title>Gammaproteobacteria</title>
<path fill="white" stroke="black" d="M1354.5,-252C1354.5,-252 1225.5,-252 1225.5,-252 1219.5,-252 1213.5,-246 1213.5,-240 1213.5,-240 1213.5,-228 1213.5,-228 1213.5,-222 1219.5,-216 1225.5,-216 1225.5,-216 1354.5,-216 1354.5,-216 1360.5,-216 1366.5,-222 1366.5,-228 1366.5,-228 1366.5,-240 1366.5,-240 1366.5,-246 1360.5,-252 1354.5,-252"/>
<text text-anchor="middle" x="1290" y="-232.1" font-family="Helvetica,sans-Serif" font-size="8.00">Gammaproteobacteria</text>
</g>
<!-- Pseudomonadota&#45;&gt;Gammaproteobacteria -->
<g id="edge33" class="edge">
<title>Pseudomonadota&#45;&gt;Gammaproteobacteria</title>
<path fill="none" stroke="black" d="M1260.64,-287.7C1265.13,-279.64 1270.56,-269.89 1275.52,-260.98"/>
<polygon fill="black" stroke="black" points="1278.66,-262.54 1280.47,-252.1 1272.55,-259.14 1278.66,-262.54"/>
</g>
<!-- Enterobacterales -->
<g id="node36" class="node">
<title>Enterobacterales</title>
<path fill="white" stroke="black" d="M1416.5,-180C1416.5,-180 1307.5,-180 1307.5,-180 1301.5,-180 1295.5,-174 1295.5,-168 1295.5,-168 1295.5,-156 1295.5,-156 1295.5,-150 1301.5,-144 1307.5,-144 1307.5,-144 1416.5,-144 1416.5,-144 1422.5,-144 1428.5,-150 1428.5,-156 1428.5,-156 1428.5,-168 1428.5,-168 1428.5,-174 1422.5,-180 1416.5,-180"/>
<text text-anchor="middle" x="1362" y="-160.1" font-family="Helvetica,sans-Serif" font-size="8.00">Enterobacterales</text>
</g>
<!-- Gammaproteobacteria&#45;&gt;Enterobacterales -->
<g id="edge34" class="edge">
<title>Gammaproteobacteria&#45;&gt;Enterobacterales</title>
<path fill="none" stroke="black" d="M1307.8,-215.7C1316.6,-207.14 1327.38,-196.66 1337,-187.3"/>
<polygon fill="black" stroke="black" points="1339.68,-189.58 1344.41,-180.1 1334.8,-184.57 1339.68,-189.58"/>
</g>
<!-- Enterobacteriaceae -->
<g id="node37" class="node">
<title>Enterobacteriaceae</title>
<path fill="white" stroke="black" d="M1458,-108C1458,-108 1340,-108 1340,-108 1334,-108 1328,-102 1328,-96 1328,-96 1328,-84 1328,-84 1328,-78 1334,-72 1340,-72 1340,-72 1458,-72 1458,-72 1464,-72 1470,-78 1470,-84 1470,-84 1470,-96 1470,-96 1470,-102 1464,-108 1458,-108"/>
<text text-anchor="middle" x="1399" y="-88.1" font-family="Helvetica,sans-Serif" font-size="8.00">Enterobacteriaceae</text>
</g>
<!-- Enterobacterales&#45;&gt;Enterobacteriaceae -->
<g id="edge35" class="edge">
<title>Enterobacterales&#45;&gt;Enterobacteriaceae</title>
<path fill="none" stroke="black" d="M1371.15,-143.7C1375.4,-135.64 1380.56,-125.89 1385.27,-116.98"/>
<polygon fill="black" stroke="black" points="1388.38,-118.58 1389.96,-108.1 1382.19,-115.31 1388.38,-118.58"/>
</g>
<!-- Enterobacteriaceae&#45;&gt;Escherichia -->
<g id="edge36" class="edge">
<title>Enterobacteriaceae&#45;&gt;Escherichia</title>
<path fill="none" stroke="black" d="M1399,-71.7C1399,-63.98 1399,-54.71 1399,-46.11"/>
<polygon fill="black" stroke="black" points="1402.5,-46.1 1399,-36.1 1395.5,-46.1 1402.5,-46.1"/>
</g>
</g>
</svg>
